<?xml version="1.0" encoding="utf-8"?>
<!DOCTYPE svg PUBLIC "-//W3C//DTD SVG 1.1//EN" "http://www.w3.org/Graphics/SVG/1.1/DTD/svg11.dtd">
<svg xmlns="http://www.w3.org/2000/svg" xmlns:xlink="http://www.w3.org/1999/xlink" version="1.1" baseProfile="full" width="240" height="240" viewBox="0 0 240.00 240.00" enable-background="new 0 0 240.00 240.00" xml:space="preserve">
	<ellipse fill="#FFFF00" fill-opacity="1" stroke-width="0.2" stroke-linejoin="miter" stroke="#412E33" stroke-opacity="0" cx="120" cy="120" rx="120" ry="120"/>
	<path fill="#412E33" fill-opacity="1" stroke-width="0.2" stroke-linejoin="miter" d="M 171.571,111.642C 169.844,119.069 163.628,124.336 157.284,127.922C 150.802,131.602 141.169,130.909 138.363,123.189C 135.975,116.616 140.398,110.816 141.736,104.696C 143.06,104.069 144.397,103.469 145.734,102.909C 148.088,106.722 156.229,107.109 159.783,106.402C 163.785,105.602 167.919,101.536 168.725,97.2423C 169.888,97.189 171.051,97.189 172.213,97.229C 172.257,97.3623 172.307,97.4958 172.395,97.6424C 174.943,101.576 172.559,107.389 171.571,111.642 Z M 158.129,96.8957C 159.229,96.349 160.519,96.4424 161.709,96.269C 162.497,96.1624 164.145,96.2157 164.145,97.389C 164.145,98.7357 162.203,98.5757 161.371,98.4557C 160.273,98.2957 159.145,98.389 158.129,97.8823C 157.752,97.709 157.752,97.069 158.129,96.8957 Z M 188.416,97.909C 182.641,88.189 165.201,91.2423 156.393,93.6157C 143.161,97.189 133.126,104.322 125.866,115.816C 125.782,115.949 125.986,116.109 126.088,115.989C 128.665,112.829 132.183,110.069 136.103,107.722C 132.652,113.469 131.521,121.469 134.296,126.962C 138.356,134.989 147.137,136.442 155.28,134.336C 164.271,132.002 172.271,122.976 175.391,114.562C 176.752,110.882 179.867,102.562 177.892,97.9757C 180.977,98.7223 183.979,99.8291 187.133,100.149C 188.281,100.256 188.948,98.8024 188.416,97.909 Z "/>
	<path fill="#412E33" fill-opacity="1" stroke-width="0.2" stroke-linejoin="miter" d="M 125.631,142.256C 128.883,141.322 131.551,141.922 133.672,143.402C 128.788,142.629 123.135,144.896 117.77,146.922C 120.06,144.962 122.43,143.176 125.631,142.256 Z M 118.659,139.696C 111.509,143.349 108.344,149.816 99.5358,150.509C 96.9394,150.709 93.8541,149.189 91.3066,150.122C 88.1738,151.256 86.4961,152.496 84.3215,155.082C 84.2336,155.189 84.3143,155.416 84.4739,155.349C 88.4231,153.696 91.7747,154.162 95.2558,154.722C 97.4525,156.016 99.4315,157.696 101.064,159.589C 103.975,162.962 102.812,166.602 100.763,170.056C 100.678,170.202 100.691,170.336 100.737,170.456C 100.212,170.909 99.679,171.376 99.1275,171.816C 98.9511,171.962 99.1757,172.202 99.3547,172.109C 101.432,171.149 103.476,170.242 105.51,169.296C 105.728,169.336 105.962,169.322 106.178,169.176C 106.645,168.856 107.142,168.576 107.625,168.269C 108.831,167.682 110.038,167.082 111.247,166.402C 112.24,165.856 113.298,165.416 114.38,165.029C 115.233,165.029 116.092,165.069 116.949,165.136C 119.465,165.829 121.77,167.749 124.018,168.869C 127.743,170.722 131.842,171.122 135.876,170.322C 145.512,168.389 144.235,154.229 141.881,147.509C 138.445,137.696 127.247,135.296 118.659,139.696 Z "/>
	<path fill="#412E33" fill-opacity="1" stroke-width="0.2" stroke-linejoin="miter" d="M 113.846,175.789C 112.74,175.069 111.039,174.882 109.788,175.189C 108.385,175.549 107.611,176.602 106.885,177.736C 106.747,177.949 107.008,178.149 107.206,178.056C 109.662,176.909 112.597,178.176 113.175,180.802C 113.434,181.976 112.831,183.669 113.799,184.629C 114.9,185.736 116.273,184.442 116.846,183.456C 118.419,180.722 116.097,177.242 113.846,175.789 Z "/>
	<path fill="#412E33" fill-opacity="1" stroke-width="0.2" stroke-linejoin="miter" d="M 66.9778,123.789C 63.871,121.989 62.3242,117.616 61.6477,114.176C 60.9069,110.416 61.6425,106.736 63.4114,103.496C 63.4915,103.496 63.5702,103.482 63.651,103.469C 64.5435,103.389 65.4401,103.349 66.3371,103.336C 66.5397,106.949 69.6809,110.522 72.9902,111.322C 75.9706,112.042 83.8775,110.429 85.6991,106.816C 86.4387,107.042 87.177,107.296 87.9127,107.562C 89.002,109.789 89.8665,112.162 89.9485,114.536C 90.065,117.909 87.9882,120.416 86.0683,122.949C 84.1327,122.682 82.2395,122.562 80.8014,122.362C 76.6237,121.762 71.502,122.189 66.9778,123.789 Z M 80.2427,107.336C 79.3274,107.309 78.2545,107.256 77.4309,106.816C 76.7975,106.482 76.3567,105.816 75.7382,105.509C 75.429,105.349 75.5787,104.856 75.9114,104.869C 76.6327,104.882 77.3307,104.429 78.0768,104.429C 78.7994,104.442 79.5214,104.576 80.2427,104.642C 81.9485,104.789 82.0031,107.376 80.2427,107.336 Z M 94.4642,127.362C 94.5912,127.402 94.6711,127.256 94.623,127.149C 93.9335,125.709 92.6054,124.762 90.9999,124.109C 94.9993,121.136 95.3872,114.696 93.0247,109.709C 96.5449,111.442 99.7545,113.616 102.182,116.442C 102.851,117.216 103.895,116.109 103.288,115.336C 96.8242,107.109 87.595,101.909 77.5553,99.2157C 70.0625,97.2157 56.3027,95.109 51.5839,103.122C 51.0697,104.002 51.7174,105.269 52.7845,105.216C 54.8703,105.109 56.8737,104.682 58.8847,104.269C 55.483,110.602 56.6171,122.802 64.0521,125.029C 61.8841,126.122 59.9647,127.536 58.5241,129.282C 57.8268,130.136 58.1555,131.882 59.5403,131.736C 65.3626,131.122 70.7585,127.989 76.5331,126.749C 81.8202,125.629 89.3418,125.576 94.4642,127.362 Z "/>
	<path fill="#412E33" fill-opacity="1" stroke-width="0.2" stroke-linejoin="miter" d="M 57.0643,68.3623C 62.7415,66.7223 68.5611,65.5356 74.2603,63.869C 80.0051,62.189 86.9979,62.389 92.1497,59.389C 93.0514,58.8556 93.1172,57.4157 92.1497,56.8957C 80.7265,50.8823 65.5657,61.4424 56.9439,68.069C 56.8125,68.1756 56.8809,68.4157 57.0643,68.3623 Z "/>
	<path fill="#412E33" fill-opacity="1" stroke-width="0.2" stroke-linejoin="miter" d="M 144.817,64.9357C 150.176,67.3756 156.653,66.7757 162.44,67.5356C 168.087,68.2824 175.735,67.1224 180.947,69.589C 176.527,65.7223 170.873,65.0423 165.473,62.9891C 159.479,60.6956 150.773,59.4023 144.817,61.9757C 143.676,62.4691 143.707,64.4424 144.817,64.9357 Z "/>
	<path fill="#FEFEFE" fill-opacity="1" stroke-width="0.2" stroke-linejoin="miter" d="M 158.129,97.8823C 159.145,98.389 160.273,98.2957 161.371,98.4557C 162.203,98.5757 164.145,98.7357 164.145,97.389C 164.145,96.2157 162.497,96.1624 161.709,96.269C 160.519,96.4424 159.229,96.349 158.129,96.8957C 157.752,97.069 157.752,97.709 158.129,97.8823 Z "/>
	<path fill="#FEFEFE" fill-opacity="1" stroke-width="0.2" stroke-linejoin="miter" d="M 78.0768,104.429C 77.3307,104.429 76.6327,104.882 75.9114,104.869C 75.5787,104.856 75.429,105.349 75.7382,105.509C 76.3567,105.816 76.7975,106.482 77.4309,106.816C 78.2545,107.256 79.3274,107.309 80.2427,107.336C 82.0031,107.376 81.9485,104.789 80.2427,104.642C 79.5214,104.576 78.7994,104.442 78.0768,104.429 Z "/>
</svg>
