<?xml version="1.0" encoding="utf-8"?>
<!DOCTYPE svg PUBLIC "-//W3C//DTD SVG 1.1//EN" "http://www.w3.org/Graphics/SVG/1.1/DTD/svg11.dtd">
<svg xmlns="http://www.w3.org/2000/svg" xmlns:xlink="http://www.w3.org/1999/xlink" version="1.1" baseProfile="full" width="240" height="240" viewBox="0 0 240.00 240.00" enable-background="new 0 0 240.00 240.00" xml:space="preserve">
	<ellipse fill="#FFFF00" fill-opacity="1" stroke-width="0.2" stroke-linejoin="miter" stroke="#412E33" stroke-opacity="0" cx="120" cy="120" rx="120" ry="120"/>
	<path fill="#412E33" fill-opacity="1" stroke-width="0.2" stroke-linejoin="miter" d="M 171.647,106.725C 172.104,110.688 171.606,114.504 169.9,118.12C 169.344,119.299 168.72,120.31 168.042,121.172C 171.206,114.455 167.284,107.455 161.268,104.187C 155.055,100.813 148.086,102.304 143.199,107.115C 142.926,107.383 142.661,107.704 142.4,108.048C 141.66,103.975 141.759,99.68 142.113,95.7054C 142.394,92.5521 143.268,89.4722 144.235,86.4748C 144.288,86.3122 144.513,85.3975 144.763,84.3656C 150.524,92.1214 161.055,98.3761 170.242,98.0361C 171.178,100.795 171.462,105.119 171.647,106.725 Z M 160.347,115.428C 158.932,115.883 157.026,115.544 155.813,114.757C 154.41,113.848 154.915,111.556 155.828,110.546C 156.674,109.608 158.03,108.98 159.378,108.844C 160.887,109.708 162.164,111.037 162.998,112.572C 162.284,113.742 162.07,114.876 160.347,115.428 Z M 148.058,119.276C 148.099,119.377 148.146,119.476 148.183,119.581C 148.052,119.448 147.921,119.315 147.793,119.177C 147.881,119.209 147.968,119.243 148.058,119.276 Z M 163.482,118.953C 163.45,118.895 163.412,118.84 163.376,118.783C 163.463,118.712 163.547,118.64 163.631,118.568C 163.583,118.697 163.539,118.827 163.482,118.953 Z M 180.348,91.6654C 172.343,91.7829 165.543,92.3014 157.943,88.9922C 150.669,85.8255 146.024,80.7428 140.956,74.9175C 140.796,74.7334 140.562,74.9375 140.59,75.1309C 140.894,77.1548 141.649,79.2067 142.738,81.2095C 136.679,85.8867 136.563,99.568 137.141,106.135C 137.993,115.82 143.633,126.164 153.215,129.689C 163.648,133.527 172.864,126.675 176.08,116.703C 177.366,112.715 177.583,102.581 174.43,97.3854C 176.866,96.6694 179.118,95.3628 181.044,93.3454C 181.626,92.7375 181.227,91.652 180.348,91.6654 Z "/>
	<path fill="#412E33" fill-opacity="1" stroke-width="0.2" stroke-linejoin="miter" d="M 90.4821,112.063C 90.572,112.187 90.6617,112.301 90.7464,112.399C 91.1,112.81 91.4846,113.188 91.7841,113.64C 91.9717,113.924 92.2269,114.625 92.2256,114.615C 92.3227,115.397 92.1813,115.688 91.7536,116.347C 91.4508,116.815 90.8577,117.245 89.986,117.663C 88.4013,118.423 86.8636,118.338 85.6845,117.015C 84.9769,116.223 84.745,114.453 85.1403,113.221C 85.5459,111.956 87.0329,111.637 88.1781,111.186C 88.9867,111.4 89.7608,111.692 90.4821,112.063 Z M 80.6221,120.939C 80.4925,120.783 80.3799,120.602 80.2888,120.392C 80.3955,120.577 80.5049,120.76 80.6221,120.939 Z M 63.7868,102.275C 66.4287,102.38 69.0029,102.673 71.0009,102.761C 75.6904,102.971 80.318,102.576 84.9618,101.927C 88.2177,101.472 91.7726,100.576 94.8559,99.0282C 98.4182,103.801 99.0616,108.22 99.0732,114.62C 99.0739,114.866 99.0603,115.099 99.0551,115.339C 98.9268,114.868 98.7803,114.405 98.6,113.96C 95.4991,106.3 85.8864,105.189 78.8161,106.64C 71.8715,108.064 68.3864,114.953 67.6637,121.515C 67.5804,122.27 67.5576,123.149 67.5915,124.08C 66.5531,122.383 65.7067,120.489 65.1059,118.427C 63.7249,113.687 65.5446,106.999 63.7868,102.275 Z M 99.3103,95.8961C 101.129,94.0921 102.422,91.8307 102.798,88.9881C 102.895,88.2601 101.86,87.9455 101.412,88.4134C 93.9932,96.1481 83.9514,97.1429 73.7906,97.8068C 65.8265,98.3281 58.0993,97.2362 52.7561,104.273C 52.6181,104.455 52.8994,104.625 53.0511,104.5C 55.016,102.876 57.9417,102.343 61.0133,102.255C 59.3936,111.832 58.8505,121.096 65.0323,129.435C 71.5628,138.244 82.4476,138.831 91.9618,135.057C 100.877,131.521 103.972,123.648 104.167,114.62C 104.287,109.059 103.973,100.052 99.3103,95.8961 Z "/>
	<path fill="#412E33" fill-opacity="1" stroke-width="0.2" stroke-linejoin="miter" d="M 53.7132,64.3135C 60.0446,62.1748 66.7125,60.4775 73.3428,59.6134C 78.236,58.9762 83.874,58.9854 88.0172,56.0934C 88.9189,55.4642 88.906,53.9349 87.6963,53.6374C 76.1228,50.7894 63.1664,58.4254 53.5323,63.8854C 53.3044,64.0148 53.458,64.4001 53.7132,64.3135 Z "/>
	<path fill="#412E33" fill-opacity="1" stroke-width="0.2" stroke-linejoin="miter" d="M 143.76,34.5495C 149.211,35.8389 154.596,36.8708 159.63,39.4362C 164.602,41.9694 169.543,45.4547 173.87,48.9614C 174.167,49.2041 174.666,48.8961 174.434,48.5267C 167.974,38.2721 156.811,25.9482 143.458,32.2347C 142.458,32.7067 142.745,34.3096 143.76,34.5495 Z "/>
	<path fill="#412E33" fill-opacity="1" stroke-width="0.2" stroke-linejoin="miter" d="M 138.311,170.525C 137.393,170.276 136.514,169.955 135.647,169.616C 134.431,166.433 129.398,165.412 126.229,165.404C 125.324,165.401 124.419,165.435 123.518,165.488C 127.069,163.383 130.577,161.189 134.596,160.139C 138.238,159.187 140.435,161.179 142.387,163.841C 142.654,164.205 142.865,164.58 143.044,164.957C 140.583,164.301 137.51,164.376 135.701,164.059C 135.516,164.028 135.392,164.269 135.569,164.373C 137.184,165.327 138.994,165.865 140.765,166.449C 141.856,166.809 142.756,167.241 143.579,167.788C 143.333,169.9 141.511,171.391 138.311,170.525 Z M 131.578,156.075C 127.077,157.396 123.165,160.727 119.347,163.3C 114.76,166.392 109.481,168.275 104.51,170.636C 104.286,170.741 104.456,171.041 104.666,171.007C 109.184,170.256 114.079,170.029 118.369,168.236C 121.864,167.956 125.352,168.164 128.532,169.203C 133.565,171.799 139.288,177.223 144.544,173.764C 149.088,170.776 148.613,165.935 146.406,161.493C 143.502,155.653 137.351,154.379 131.578,156.075 Z "/>
	<path fill="#412E33" fill-opacity="1" stroke-width="0.2" stroke-linejoin="miter" d="M 121.096,180.085C 118.368,179.091 115.785,180.087 113.035,179.824C 112.876,179.809 112.843,180.069 112.998,180.1C 114.967,180.492 117.073,181.375 118.796,182.417C 120.636,183.531 121.007,185.891 122.814,187C 123.271,187.28 123.816,187.08 124.097,186.664C 125.746,184.223 123.509,180.965 121.096,180.085 Z "/>
	<path fill="#412E33" fill-opacity="1" stroke-width="0.2" stroke-linejoin="miter" d="M 150.16,155.484C 147.987,153.663 145.383,153.132 142.732,152.365C 142.582,152.323 142.477,152.555 142.624,152.623C 144.73,153.595 146.528,155.175 148.154,156.812C 148.961,157.624 149.699,158.645 150.123,159.715C 150.471,160.595 150.737,161.411 151.363,162.143C 151.677,162.508 152.201,162.333 152.444,162.003C 154.048,159.815 151.842,156.893 150.16,155.484 Z "/>
</svg>
