<?xml version="1.0" encoding="utf-8"?>
<!DOCTYPE svg PUBLIC "-//W3C//DTD SVG 1.1//EN" "http://www.w3.org/Graphics/SVG/1.1/DTD/svg11.dtd">
<svg xmlns="http://www.w3.org/2000/svg" xmlns:xlink="http://www.w3.org/1999/xlink" version="1.1" baseProfile="full" width="240" height="240" viewBox="0 0 240.00 240.00" enable-background="new 0 0 240.00 240.00" xml:space="preserve">
	<ellipse fill="#FFFF00" fill-opacity="1" stroke-width="0.2" stroke-linejoin="miter" stroke="#412E33" stroke-opacity="0" cx="120" cy="120" rx="120" ry="120"/>
	<path fill="#412E33" fill-opacity="1" stroke-width="0.2" stroke-linejoin="miter" d="M 166.896,124.141C 159.432,128.955 148.707,127.315 142.22,121.648C 129.429,110.461 130.095,89.1813 139.185,75.9946C 140.843,78.328 142.877,80.4214 144.671,82.168C 146.232,83.688 148.331,85.728 150.771,87.9014C 148.279,89.0347 146.244,91.2213 145.208,94.0747C 142.945,100.328 144.685,107.781 149.241,112.528C 154.231,117.715 162.623,117.741 168.368,114.021C 172.117,111.595 174.84,106.728 175.068,102.035C 175.647,102.101 176.219,102.141 176.784,102.141C 176.091,105.155 176.256,107.928 176.167,111.181C 176.008,116.901 171.359,121.261 166.896,124.141 Z M 162.527,99.9014C 162.741,99.5414 163.035,99.2347 163.352,98.9414C 164.216,99.3546 165.181,99.6613 165.88,99.9014C 166.908,100.261 168.349,100.835 168.68,101.968C 169.003,103.075 166.897,105.021 165.987,105.341C 162.896,106.461 161.185,102.128 162.527,99.9014 Z M 184.291,98.888C 173.096,97.248 164.875,91.3013 156.128,84.5814C 152.051,81.4347 148.032,78.3013 144.491,74.5547C 142.467,72.4214 136.063,60.4081 143.457,59.8747C 143.713,59.848 143.787,59.4746 143.52,59.4081C 138.787,58.1813 136.685,61.5414 136.031,65.8747C 135.661,68.328 136.248,70.7013 137.34,72.9414C 130.348,77.2614 128.075,87.0614 127.179,94.7147C 125.853,106.035 130.504,120.221 139.908,127.288C 158.496,141.235 188.052,125.155 180.244,101.701C 181.732,101.275 183.147,100.581 184.451,99.4879C 184.645,99.328 184.552,98.9281 184.291,98.888 Z "/>
	<path fill="#412E33" fill-opacity="1" stroke-width="0.2" stroke-linejoin="miter" d="M 98.4427,126.675C 91,131.915 79.74,131.355 74.9053,123.035C 71.6173,117.368 72.768,110.248 72.6493,103.888C 76.1733,102.235 79.612,100.048 82.86,97.6479C 82.8493,97.728 82.8374,97.7946 82.828,97.8613C 82.1027,103.755 85.1386,108.701 90.536,111.048C 95.7107,113.288 101.747,112.741 106.668,110.128C 107.663,109.595 108.655,108.848 109.527,107.955C 109.196,115.368 104.261,122.568 98.4427,126.675 Z M 105.688,93.328C 105.692,93.3947 105.695,93.4613 105.709,93.528C 106.223,95.728 106.512,97.7946 104.311,99.1279C 102.56,100.181 100.721,98.4746 100.093,96.9281C 99.4266,95.2881 99.312,92.6081 101.353,91.8747C 102.345,91.528 103.653,92.4879 104.563,92.7681C 104.931,92.888 105.275,93.0347 105.617,93.1813C 105.639,93.2347 105.665,93.2747 105.688,93.328 Z M 114.679,105.515C 114.479,98.8213 109.615,82.8747 101.976,79.7946C 105.208,75.6346 107.832,70.6346 106.913,65.848C 105.787,59.9946 100.831,58.4081 95.8667,61.1413C 95.228,61.4879 95.328,62.5947 96.0747,62.7414C 111.359,65.8613 88.8827,85.6081 83.9347,89.888C 75.592,97.1014 66.6294,104.195 55.5493,106.328C 55.472,106.341 55.476,106.461 55.5493,106.488C 59.6973,107.475 63.972,107.021 68.1946,105.661C 66.2906,113.341 67.0227,122.848 71.912,128.821C 78.916,137.368 90.84,137.541 99.972,132.501C 109.38,127.301 114.993,116.021 114.679,105.515 Z "/>
	<path fill="#412E33" fill-opacity="1" stroke-width="0.2" stroke-linejoin="miter" d="M 124.713,144.101C 126.045,143.808 127.453,143.661 128.843,143.528C 130.717,143.728 132.592,144.208 134.515,145.128C 136.501,146.075 138.176,147.315 139.643,148.755C 139.228,149.048 138.839,149.355 138.495,149.608C 138.284,149.755 138.039,149.941 137.784,150.155C 134.113,150.115 130.341,150.701 126.813,151.168C 123.496,151.608 119.825,152.008 116.495,153.101C 116.817,152.608 117.127,152.115 117.465,151.635C 119.5,148.741 122.275,146.581 124.713,144.101 Z M 147.803,149.755C 142.767,142.088 132.395,136.408 124.063,139.541C 115.203,141.568 109.619,152.821 106.375,160.328C 101.549,171.488 99.1893,183.661 103.052,195.435C 103.065,195.488 103.128,195.488 103.143,195.435C 103.187,195.301 103.22,195.168 103.263,195.021C 103.868,195.635 104.767,195.901 105.648,195.328C 109.395,192.861 111.135,188.808 114.657,186.141C 120.147,181.981 129.811,184.088 135.791,185.581C 141.976,187.128 151.907,193.701 158.141,189.768C 158.609,189.475 158.896,189.088 159.072,188.635C 162.353,182.341 159.379,176.995 157.331,170.715C 154.953,163.448 152.041,156.221 147.803,149.755 Z "/>
	<path fill="#412E33" fill-opacity="1" stroke-width="0.2" stroke-linejoin="miter" d="M 133.404,195.435C 132.195,193.941 129.871,193.648 128.116,193.421C 124.375,192.928 120.371,195.715 117.687,197.941C 117.544,198.061 117.7,198.261 117.853,198.235C 121.207,197.555 124.135,197.261 127.52,197.808C 128.849,198.035 130.123,198.528 131.441,198.808C 133.068,199.155 134.264,198.901 135.811,199.755C 136.023,199.861 136.2,199.608 136.057,199.435C 134.971,198.115 134.456,196.741 133.404,195.435 Z "/>
	<path fill="#412E33" fill-opacity="1" stroke-width="0.2" stroke-linejoin="miter" d="M 56.412,62.2747C 61.744,58.6747 70.1187,58.328 76.22,56.208C 82.3333,54.0747 87.5053,50.5013 90.8067,44.8747C 92.852,41.3947 87.368,38.208 85.4107,41.728C 81.876,48.0747 75.3853,50.5146 68.9826,53.1413C 63.7119,55.3013 60.2706,58.1947 56.184,61.9813C 56.0293,62.1279 56.2334,62.3947 56.412,62.2747 Z "/>
	<path fill="#412E33" fill-opacity="1" stroke-width="0.2" stroke-linejoin="miter" d="M 182.456,66.7147C 182.533,66.7681 182.641,66.6747 182.565,66.6081C 178.517,62.728 175.331,58.0347 171.352,54.1014C 169.419,52.1813 167.723,50.0747 166.293,47.7547C 164.793,45.328 164.308,42.7681 161.816,41.1947C 160.596,40.4214 159.251,41.248 158.787,42.4347C 156.873,47.328 162.223,53.208 165.439,56.4481C 170.268,61.328 177.16,62.5814 182.456,66.7147 Z "/>
</svg>
