<?xml version="1.0" encoding="utf-8"?>
<!DOCTYPE svg PUBLIC "-//W3C//DTD SVG 1.1//EN" "http://www.w3.org/Graphics/SVG/1.1/DTD/svg11.dtd">
<svg xmlns="http://www.w3.org/2000/svg" xmlns:xlink="http://www.w3.org/1999/xlink" version="1.1" baseProfile="full" width="240" height="240" viewBox="0 0 240.00 240.00" enable-background="new 0 0 240.00 240.00" xml:space="preserve">
	<ellipse fill="#FFFF00" fill-opacity="1" stroke-width="0.2" stroke-linejoin="miter" stroke="#412E33" stroke-opacity="0" cx="120" cy="120" rx="120" ry="120"/>
	<path fill="#412E33" fill-opacity="1" stroke-width="0.2" stroke-linejoin="miter" d="M 59.252,131.494C 65.032,130.321 70.9533,131.121 76.5706,132.734C 79.716,133.628 82.4453,134.974 84.976,137.054C 86.8613,138.601 87.804,140.361 90.0987,141.281C 90.848,141.588 91.4786,140.841 91.5426,140.188C 92.1133,134.228 83.8267,130.601 79.1853,129.081C 72.5826,126.908 65.364,128.494 59.0773,130.868C 58.684,131.014 58.832,131.588 59.252,131.494 Z "/>
	<path fill="#412E33" fill-opacity="1" stroke-width="0.2" stroke-linejoin="miter" d="M 90.7973,109.428C 90.0627,108.748 89.8293,107.988 88.9373,107.414C 88.02,106.814 86.7426,106.721 85.6866,106.748C 83,106.788 80.4213,108.574 78.592,110.374C 74.6053,114.308 73.3987,121.054 76.8853,125.654C 78.8987,128.321 83.4147,125.894 81.4813,122.974C 79.5,119.974 79.7893,116.628 81.9906,113.774C 83.0706,112.374 84.5547,111.321 86.2346,110.801C 87.3706,110.441 89.4226,109.548 90.6147,109.734C 90.7853,109.761 90.948,109.561 90.7973,109.428 Z "/>
	<path fill="#412E33" fill-opacity="1" stroke-width="0.2" stroke-linejoin="miter" d="M 84.568,105.028C 75.8493,103.028 72.6826,113.441 72.1173,120.201C 71.8507,123.374 72.0306,127.854 74.208,130.428C 75.888,132.414 79.304,133.228 80.4586,130.294C 80.6613,129.774 80.3987,129.201 80.0693,128.814C 75.44,123.414 77.1346,109.294 84.568,106.748C 85.3546,106.481 85.4773,105.241 84.568,105.028 Z "/>
	<path fill="#412E33" fill-opacity="1" stroke-width="0.2" stroke-linejoin="miter" d="M 82.664,105.174C 76.7213,104.868 73.0013,109.774 70.5093,114.668C 68.488,118.641 65.9413,126.534 71.544,128.774C 74.6533,130.028 76.0426,125.401 73.676,123.721C 72.644,122.988 74.776,117.108 75.2747,115.761C 76.3947,112.748 79.1613,106.588 82.764,105.921C 83.1986,105.841 83.0667,105.201 82.664,105.174 Z "/>
	<path fill="#412E33" fill-opacity="1" stroke-width="0.2" stroke-linejoin="miter" d="M 58.8213,70.4945C 68.3667,63.8011 80.2467,60.4411 89.9453,53.9478C 90.9533,53.2677 90.5733,51.721 89.3307,51.6676C 82.9987,51.4144 77.8346,53.7344 72.376,56.7344C 66.0667,60.201 62.852,64.5877 58.4427,70.001C 58.236,70.2544 58.5093,70.7077 58.8213,70.4945 Z "/>
	<path fill="#412E33" fill-opacity="1" stroke-width="0.2" stroke-linejoin="miter" d="M 179.943,118.868C 178.68,121.241 177.115,123.094 175.365,124.681C 176.039,121.761 175.66,118.441 174.585,115.508C 172.055,108.628 165.849,104.521 158.719,104.281C 152.068,104.068 145.801,107.881 141.928,113.268C 142.021,111.081 142.232,108.908 142.589,106.748C 144.564,94.8278 152.885,85.3477 164.511,82.1877C 169.492,80.8278 175.341,81.0811 179.453,84.4811C 183.959,88.201 184.167,95.881 184.148,101.188C 184.128,107.281 182.8,113.468 179.943,118.868 Z M 167.497,118.281C 166.317,119.534 164.292,120.308 162.607,119.881C 160.32,119.321 159.992,116.014 160.079,114.134C 160.171,112.108 162.005,111.188 163.903,110.868C 165.48,111.708 166.909,112.948 168.135,114.534C 168.381,114.854 168.599,115.161 168.8,115.481C 168.523,116.468 168.272,117.468 167.497,118.281 Z M 158.695,123.761 Z M 172.647,76.1611C 159.223,75.1344 147.155,83.041 140.869,94.6011C 133.904,107.414 135.551,125.374 140.587,138.534C 140.708,138.854 140.911,139.134 141.153,139.361C 139.311,140.814 137.539,142.441 135.803,144.281C 135.657,144.441 135.843,144.694 136.031,144.588C 142.472,140.721 150.123,138.068 157.436,136.561C 165.235,134.948 173.531,136.054 181.096,133.348C 181.66,133.148 181.663,132.401 181.096,132.201C 178.567,131.294 175.928,130.828 173.247,130.641C 183.055,124.828 188.305,115.788 189.387,103.121C 190.395,91.3343 186.389,77.2277 172.647,76.1611 Z "/>
	<path fill="#412E33" fill-opacity="1" stroke-width="0.2" stroke-linejoin="miter" d="M 85.4427,114.148C 87.7146,112.521 94.0173,112.974 93.4533,116.921C 93.1387,118.694 92.792,120.441 91.1533,121.308C 89.556,122.134 86.9933,121.548 85.5733,120.334C 83.7733,118.814 83.22,115.721 85.4427,114.148 Z M 66.0533,112.054C 65.1067,114.001 64.468,116.988 64.4827,119.948C 64.1587,119.174 63.8653,118.361 63.648,117.454C 62.4187,112.308 62.1027,107.588 63.476,102.441C 65.6387,94.361 72.9027,87.0811 81.4053,86.241C 93.1853,85.0811 98.5747,98.9344 99.5146,108.374C 99.7654,110.894 99.6973,113.414 99.372,115.894C 97.3627,108.508 92.1813,102.001 84.98,101.774C 77.2773,101.548 69.5146,104.908 66.0533,112.054 Z M 82.9053,131.668C 83.084,131.921 83.296,132.134 83.5347,132.294C 84.0053,133.761 85.5933,134.721 87.1773,133.908C 87.312,135.148 88.5453,136.121 89.768,136.081C 89.632,136.588 90.072,137.014 90.5493,137.094C 90.296,137.921 90.1173,138.761 90.088,139.654C 90.06,140.468 91.2946,140.841 91.66,140.081C 92.792,137.708 95.26,135.614 96.8706,133.494C 97.1427,133.148 97.38,132.774 97.676,132.361C 99.648,129.561 101.179,126.614 102.428,123.388C 105.344,115.868 105.032,107.268 103.032,99.5877C 100.285,89.0544 91.248,79.2944 79.5693,81.2144C 69.148,82.9211 61.552,91.3078 58.4333,101.054C 55.26,110.974 57.8253,127.534 69.5573,130.414C 70.352,130.614 71.304,129.681 70.7227,128.908C 70.3333,128.388 69.944,127.894 69.5573,127.414C 70.296,124.708 69.5946,121.508 69.7187,118.761C 70.0227,112.081 75.3147,108.681 81.248,107.308C 84.852,106.481 87.612,107.441 89.6986,109.361C 88.6093,109.068 87.4867,108.948 86.4813,109.041C 80.1187,109.641 77.196,116.308 79.8586,121.774C 80.0013,122.068 80.1667,122.348 80.3466,122.614C 80.032,122.721 79.7293,122.841 79.432,123.001C 78.7533,122.948 78.0453,123.148 77.4467,123.668C 75.944,125.001 74.588,126.401 74.2506,128.401C 74.0653,129.494 74.724,130.774 75.9973,130.708C 77.1933,130.641 78.0133,130.268 78.74,129.734C 78.9066,131.641 81.0946,132.961 82.9053,131.668 Z "/>
	<path fill="#412E33" fill-opacity="1" stroke-width="0.2" stroke-linejoin="miter" d="M 178.709,53.7077C 175.285,51.6144 163.881,45.4544 160.82,50.6676C 160.505,51.2144 160.5,51.9077 160.82,52.4411C 162.617,55.4544 169.715,55.8278 172.839,56.7878C 178.3,58.4945 188.209,61.9744 190.575,67.9077C 190.619,68.0277 190.773,67.9878 190.755,67.8677C 189.699,61.0544 184.329,57.1211 178.709,53.7077 Z "/>
	<path fill="#412E33" fill-opacity="1" stroke-width="0.2" stroke-linejoin="miter" d="M 123.064,215.434C 113.782,210.434 108.42,199.847 103.379,190.527C 104.554,190.62 105.838,190.594 106.814,190.087C 108.147,189.394 109.594,188.447 110.969,187.874C 111.734,187.554 111.452,186.514 110.628,186.634C 109.427,186.807 107.472,186.46 106.293,186.1C 104.791,185.634 103.068,185.967 101.511,185.527C 101.298,185.474 101.025,185.367 100.722,185.247C 97.4997,178.487 94.4144,171.034 90.3969,164.607C 98.324,168.207 109.316,169.514 114.168,169.86C 124.449,170.607 139.041,165.86 148.775,158.074C 145.438,165.687 143.907,174.114 141.425,182.38C 140.495,182.914 139.557,183.42 138.571,183.727C 135.317,184.754 132.076,186.1 128.798,186.994C 128.515,187.074 128.564,187.54 128.868,187.514C 132.46,187.26 135.901,187.82 139.528,187.194C 139.7,187.167 139.879,187.127 140.063,187.087C 137.245,196.967 132.51,212.594 123.064,215.434 Z M 157.148,144.527C 156.364,143.234 153.999,143.607 153.58,145.154C 151.17,154.047 141.188,155.14 134.602,159.94C 134.496,160.02 134.421,160.127 134.359,160.247C 128.73,162.647 122.889,164.287 117.173,164.62C 114.503,164.66 111.8,164.567 109.101,164.314C 105.509,163.874 101.937,163.114 98.4945,162.26C 96.4112,161.234 94.3272,160.18 92.3077,159.007C 89.544,157.407 82.0655,153.594 81.3487,151.22C 81.1312,150.487 80.3421,150.34 79.8304,150.687C 79.4535,150.58 79.0166,150.58 78.5298,150.767C 76.5531,151.5 74.8344,152.9 73.3975,154.42C 71.8247,156.1 71.2497,158.26 69.8656,160.047C 69.6748,160.287 69.9873,160.634 70.2197,160.394C 71.6111,158.967 73.4451,158.54 75.1228,157.567C 76.682,156.674 78.434,156.047 79.9561,155.1C 80.3148,155.714 80.7732,156.314 81.3168,156.874C 81.6743,157.367 82.0623,157.847 82.4776,158.314C 82.8299,158.927 83.2576,159.514 83.7536,160.074C 85.2588,165.754 88.2511,171.3 90.5564,176.527C 94.2712,184.94 97.8877,193.42 102.529,201.38C 106.678,208.5 117.858,227.687 128.213,219.54C 128.584,219.26 128.668,218.834 128.579,218.42C 136.88,214.447 142.101,198.594 144.351,191.994C 145.439,188.794 146.406,185.567 147.298,182.314C 147.349,182.18 147.384,182.034 147.416,181.874C 148.822,176.714 150.045,171.5 151.256,166.287C 151.881,163.607 152.497,160.914 153.291,158.274C 153.99,155.954 155.183,153.9 155.884,151.74C 156.163,151.327 156.416,150.887 156.627,150.447C 157.72,151.18 158.864,151.834 160.022,152.447C 162.366,153.687 163.664,155.94 164.371,158.46C 164.435,158.687 164.752,158.62 164.77,158.407C 165.171,153.034 161.44,149.127 158.195,145.247C 157.88,144.86 157.52,144.647 157.148,144.527 Z "/>
</svg>
