<?xml version="1.0" encoding="utf-8"?>
<!DOCTYPE svg PUBLIC "-//W3C//DTD SVG 1.1//EN" "http://www.w3.org/Graphics/SVG/1.1/DTD/svg11.dtd">
<svg xmlns="http://www.w3.org/2000/svg" xmlns:xlink="http://www.w3.org/1999/xlink" version="1.1" baseProfile="full" width="240" height="240" viewBox="0 0 240.00 240.00" enable-background="new 0 0 240.00 240.00" xml:space="preserve">
	<ellipse fill="#FFFF00" fill-opacity="1" stroke-width="0.2" stroke-linejoin="miter" stroke="#412E33" stroke-opacity="0" cx="120" cy="120" rx="120" ry="120"/>
	<path fill="#412E33" fill-opacity="1" stroke-width="0.2" stroke-linejoin="miter" d="M 67.2153,68.5466C 71.3946,66.6836 75.2605,64.4957 79.717,63.2918C 82.2947,62.5956 84.9847,62.1769 87.6239,61.805C 89.9066,61.4835 91.8593,61.6984 93.8582,60.4898C 94.8907,59.8653 95.0267,58.0201 93.7954,57.492C 89.3645,55.5921 82.9303,58.3044 78.7291,60.0007C 74.3515,61.7675 69.5669,64.0675 66.8161,68.0508C 66.6525,68.2873 66.9451,68.6674 67.2153,68.5466 Z "/>
	<path fill="#412E33" fill-opacity="1" stroke-width="0.2" stroke-linejoin="miter" d="M 152.754,58.529C 156.219,59.1509 161.438,59.5497 164.481,61.3668C 164.741,61.5198 164.993,61.1634 164.749,60.9811C 163.283,59.889 162.195,58.4125 160.752,57.2911C 158.992,55.9211 156.883,54.9407 154.79,54.2001C 151.91,53.182 146.222,52.1089 144.337,55.3455C 143.988,55.9463 143.984,56.895 144.686,57.2819C 146.973,58.5424 150.187,58.0671 152.754,58.529 Z "/>
	<path fill="#412E33" fill-opacity="1" stroke-width="0.2" stroke-linejoin="miter" d="M 147.604,81.1981C 164.938,79.3647 174.123,98.4227 166.313,112.988C 164.167,116.99 160.51,119.427 156.359,120.595C 157.287,119.714 158.087,118.725 158.69,117.689C 161.505,112.852 160.478,106.402 157.238,102.078C 153.203,96.6942 146.23,95.6479 139.995,96.9214C 134.681,98.0073 129.503,103.113 130.376,108.354C 129.873,107.164 129.446,105.931 129.1,104.676C 129.214,100.71 130.079,96.6766 131.073,93.2781C 133.372,85.4155 139.438,81.8647 147.604,81.1981 Z M 152.831,103.298C 152.99,104.394 153.079,105.503 153.119,106.557C 153.17,107.862 152.517,108.869 151.894,109.903C 150.214,110.613 148.491,110.721 146.591,110.122C 144.159,109.354 142.535,106.964 143.179,104.485C 143.982,101.395 147.614,102.382 149.95,101.453C 150.997,101.91 151.965,102.526 152.831,103.298 Z M 157.873,125.418C 163.533,123.533 168.497,119.794 171.277,114.378C 175.183,106.766 175.438,98.1981 172.104,88.8647C 167.604,78.0314 156.088,75.3647 147.771,75.5314C 136.271,76.1981 129.145,83.2124 126.965,92.0014C 122.082,101.77 125.958,115.751 134.616,122.194C 136.219,123.386 137.973,124.317 139.805,125.044C 137.424,125.231 134.563,125.698 132.063,127.031C 131.828,127.059 132.231,127.026 132.479,127.031C 139.229,126.531 146.323,127.49 153.149,128.083C 159.917,128.673 167.476,127.739 174.229,125.781C 174.316,125.79 174.316,125.462 174.229,125.448C 168.944,126.57 163.13,126.258 157.873,125.418 Z "/>
	<path fill="#412E33" fill-opacity="1" stroke-width="0.2" stroke-linejoin="miter" d="M 99.4377,81.5314C 106.679,91.4324 101.85,107.9 93.2797,112.787C 95.3793,108.384 94.8208,103.215 89.4556,99.2983C 86.0207,96.7905 77.6776,97.5587 71.7707,100.275C 72.3052,99.021 75.7248,92.1303 76.4377,90.8647C 84.2983,79.4721 90.1797,74.5627 99.4377,81.5314 Z M 84.5812,101.246C 84.8142,101.289 85.0245,101.357 85.244,101.414C 85.5175,101.863 85.7713,102.323 86.0324,102.732C 86.8325,103.983 87.55,104.853 87.5584,106.385C 87.5701,108.633 85.076,110.36 83.0584,110.574C 80.1444,110.884 78.74,107.943 79.2603,105.411C 79.7336,103.109 81.1919,101.77 83.0467,101.084C 83.5786,101.111 84.0974,101.158 84.5812,101.246 Z M 91.0891,120.083C 90.7738,119.987 90.4574,119.922 90.1417,119.841C 91.0518,119.516 91.9211,119.171 92.7244,118.811C 105.661,113.017 115.207,90.7293 102.938,77.3647C 96.7469,70.6206 88.6043,72.5307 81.4377,77.8647C 78.1043,80.6977 76.1845,83.5053 74.271,85.5314C 68.1043,92.5311 65.1151,102.916 64.9497,109.762C 64.8117,115.46 67.1183,118.781 70.5695,120.509C 67.6738,119.914 63.1668,118.364 59.0419,118.99C 58.8246,118.962 63.8356,120.461 66.7918,121.656C 84.3372,125.968 82.1043,122.531 91.6044,124.198C 92.5418,124.102 92.4377,121.864 91.0891,120.083 Z "/>
	<path fill="#412E33" fill-opacity="1" stroke-width="5.33334" stroke-linejoin="miter" d="M 86.5686,172.46C 86.5342,172.296 86.4998,172.132 86.4532,171.958C 86.2516,171.055 84.9489,170.105 84.3363,170.931C 84.2789,170.99 84.2214,171.049 84.1639,171.108C 83.4574,171.454 83.3094,172.426 83.8217,173.21C 86.2527,176.909 95.3431,185.566 99.1584,181.927C 99.5359,181.562 99.3619,180.986 98.9944,180.542C 97.4454,178.668 94.5545,177.924 92.5471,176.63C 90.1249,175.074 88.1847,172.78 85.7319,171.255C 86.0562,171.876 86.3814,172.497 86.7065,173.118C 86.8014,172.444 86.6836,172.01 86.2329,171.363C 86.1526,171.889 86.061,172.403 85.9815,172.928C 86.1494,172.845 86.3072,172.75 86.4752,172.667C 86.5359,172.627 86.5901,172.549 86.5686,172.46 Z "/>
	<path fill="#412E33" fill-opacity="1" stroke-width="5.33334" stroke-linejoin="miter" d="M 116.298,174.97C 125.832,174.925 134.751,173.923 142.992,172.581C 143.238,172.539 143.494,172.496 143.748,172.454C 143.671,172.524 143.603,172.595 143.543,172.666C 136.64,173.696 130.355,174.896 122.438,175.394C 117.906,175.685 113.119,175.722 108.332,175.573C 103.162,175.291 98.0232,174.854 93.291,174.246C 93.1479,174.024 92.9861,173.802 92.8069,173.583C 100.347,174.634 109.38,175.003 116.298,174.97 Z M 85.6796,172.24C 85.537,172.313 85.4399,172.384 85.3734,172.454C 85.0537,172.267 84.7394,172.077 84.4237,171.886C 84.8325,172.006 85.2547,172.123 85.6862,172.244 Z M 96.5675,177.813C 96.494,177.82 96.4206,177.824 96.3512,177.827L 96.3133,177.784C 96.3998,177.794 96.481,177.803 96.5675,177.813 Z M 96.7472,177.829 Z M 158.247,167.229C 148.106,170.411 134.058,172.543 119.647,173.157C 106.204,173.727 84.6239,172.375 78.6862,167.784C 78.5901,167.711 78.2028,167.743 78.2202,167.819C 78.3395,168.362 81.1466,171.34 81.6378,171.808C 84.6472,175.142 84.4745,174.375 86.4287,176.822C 89.0641,179.239 93.6252,182.281 96.9585,184.656C 99.6905,186.751 100.836,187.268 105,188.99C 105.091,189.042 106.405,189.285 106.503,189.38C 107.919,189.672 107.078,189.524 107.55,189.63C 107.637,189.644 107.757,189.679 107.847,189.693C 108.738,189.8 108.63,189.764 109.55,189.808C 123.997,190.784 133.875,186.503 139.438,182.448C 142.849,179.964 146.431,178.263 149.202,175.693C 150.961,174.061 152.625,172.423 155.018,170.877C 155.9,170.309 156.606,169.754 156.93,169.168C 158.027,168.611 162.343,165.293 162.438,164.615C 162.451,164.518 158.45,167.164 158.247,167.229 Z "/>
	<path fill="#412E33" fill-opacity="1" stroke-width="5.33334" stroke-linejoin="miter" d="M 131.807,199.829C 129.056,200.006 126.366,199.797 123.623,200.216C 122.431,200.409 121.319,200.57 120.164,201.021C 118.896,201.488 117.74,202.744 116.436,203.276C 116.295,203.34 116.308,203.646 116.474,203.614C 117.99,203.372 119.118,204.081 120.532,204.306C 122.252,204.58 123.964,204.5 125.69,204.306C 128.111,204.032 130.284,202.47 132.039,200.506C 132.244,200.28 132.091,199.813 131.807,199.829 Z "/>
</svg>
