<?xml version="1.0" encoding="utf-8"?>
<!DOCTYPE svg PUBLIC "-//W3C//DTD SVG 1.1//EN" "http://www.w3.org/Graphics/SVG/1.1/DTD/svg11.dtd">
<svg xmlns="http://www.w3.org/2000/svg" xmlns:xlink="http://www.w3.org/1999/xlink" version="1.1" baseProfile="full" width="240" height="240" viewBox="0 0 240.00 240.00" enable-background="new 0 0 240.00 240.00" xml:space="preserve">
	<ellipse fill="#FFFF00" fill-opacity="1" stroke-width="0.2" stroke-linejoin="miter" stroke="#412E33" stroke-opacity="0" cx="120" cy="120" rx="120" ry="120"/>
	<path fill="#412E33" fill-opacity="1" stroke-width="0.2" stroke-linejoin="miter" d="M 67.5692,69.3597C 71.6283,67.2477 75.3549,64.8302 79.7306,63.3593C 82.2615,62.5086 84.9213,61.9283 87.5332,61.3975C 89.7923,60.9387 91.7544,61.0352 93.6767,59.7081C 94.6696,59.0224 94.6938,57.1723 93.4329,56.7195C 88.8952,55.0909 82.6367,58.1869 78.5456,60.1339C 74.2828,62.1619 69.6458,64.7468 67.1407,68.889C 66.9917,69.1349 67.3068,69.4967 67.5692,69.3597 Z "/>
	<path fill="#412E33" fill-opacity="1" stroke-width="0.2" stroke-linejoin="miter" d="M 152.878,58.726C 156.396,58.8709 161.62,58.5565 164.882,59.9428C 165.16,60.0592 165.362,59.6717 165.095,59.5243C 163.494,58.6416 162.215,57.3269 160.634,56.412C 158.704,55.294 156.48,54.6097 154.307,54.1604C 151.314,53.5434 145.533,53.2538 144.106,56.7166C 143.842,57.3593 143.967,58.2997 144.715,58.5876C 147.153,59.5253 150.272,58.6175 152.878,58.726 Z "/>
	<path fill="#412E33" fill-opacity="1" stroke-width="0.2" stroke-linejoin="miter" d="M 147.604,81.1981C 164.938,79.3647 174.123,98.4227 166.313,112.988C 164.167,116.99 160.51,119.427 156.359,120.595C 157.287,119.714 158.087,118.725 158.69,117.689C 161.505,112.852 160.478,106.402 157.238,102.078C 153.203,96.6942 146.23,95.6479 139.995,96.9214C 134.681,98.0073 129.503,103.113 130.376,108.354C 129.873,107.164 129.446,105.931 129.1,104.676C 129.214,100.71 130.079,96.6766 131.073,93.2781C 133.372,85.4155 139.438,81.8647 147.604,81.1981 Z M 152.831,103.298C 152.99,104.394 153.079,105.503 153.119,106.557C 153.17,107.862 152.517,108.869 151.894,109.903C 150.214,110.613 148.491,110.721 146.591,110.122C 144.159,109.354 142.535,106.964 143.179,104.485C 143.982,101.395 147.614,102.382 149.95,101.453C 150.997,101.91 151.965,102.526 152.831,103.298 Z M 157.873,125.418C 163.533,123.533 168.497,119.794 171.277,114.378C 175.183,106.766 175.438,98.1981 172.104,88.8647C 167.604,78.0314 156.088,75.3647 147.771,75.5314C 136.271,76.1981 129.145,83.2124 126.965,92.0014C 122.082,101.77 125.958,115.751 134.616,122.194C 136.219,123.386 137.973,124.317 139.805,125.044C 137.424,125.231 134.563,125.698 132.063,127.031C 131.828,127.059 132.231,127.026 132.479,127.031C 139.229,126.531 146.323,127.49 153.149,128.083C 159.917,128.673 167.476,127.739 174.229,125.781C 174.316,125.79 174.316,125.462 174.229,125.448C 168.944,126.57 163.13,126.258 157.873,125.418 Z "/>
	<path fill="#412E33" fill-opacity="1" stroke-width="0.2" stroke-linejoin="miter" d="M 99.4377,81.5312C 106.679,91.4323 101.85,107.9 93.2798,112.787C 95.3793,108.384 94.8208,103.215 89.4556,99.2982C 86.0207,96.7903 77.6776,97.5586 71.7707,100.275C 72.3052,99.0208 75.7248,92.1302 76.4377,90.8646C 84.2984,79.472 90.1797,74.5625 99.4377,81.5312 Z M 84.5812,101.246C 84.8142,101.289 85.0245,101.357 85.244,101.414C 85.5175,101.863 85.7713,102.323 86.0324,102.732C 86.8325,103.983 87.55,104.853 87.5584,106.385C 87.5701,108.633 85.076,110.359 83.0584,110.574C 80.1444,110.884 78.74,107.943 79.2603,105.411C 79.7336,103.109 81.1919,101.77 83.0467,101.084C 83.5786,101.111 84.0974,101.158 84.5812,101.246 Z M 91.0891,120.083C 90.7738,119.987 90.4575,119.922 90.1417,119.841C 91.0519,119.516 91.9211,119.171 92.7244,118.811C 105.661,113.017 115.207,90.7292 102.938,77.3646C 96.7469,70.6204 88.6043,72.5306 81.4377,77.8646C 78.1044,80.6976 76.1845,83.5052 74.271,85.5312C 68.1044,92.5309 65.1151,102.916 64.9497,109.762C 64.8117,115.46 67.1183,118.781 70.5695,120.509C 67.6739,119.914 64.6875,118.5 59.875,119.75C 59.6577,119.722 63.8356,120.461 66.7919,121.656C 84.3372,125.967 82.1044,122.531 91.6044,124.198C 92.5418,124.102 92.4377,121.864 91.0891,120.083 Z "/>
	<path fill="#412E33" fill-opacity="1" stroke-width="0.2" stroke-linejoin="miter" d="M 87.2353,169.631C 87.2008,169.466 87.1664,169.302 87.1199,169.128C 86.9182,168.225 85.6155,167.275 85.003,168.101C 84.9456,168.16 84.8881,168.219 84.8306,168.278C 84.1241,168.624 83.9761,169.596 84.4883,170.38C 86.9193,174.079 96.0098,182.736 99.825,179.097C 100.203,178.732 100.029,178.156 99.661,177.712C 98.1121,175.838 95.2212,175.094 93.2138,173.8C 90.7915,172.244 88.8514,169.95 86.3986,168.425C 86.7228,169.046 87.0481,169.667 87.3731,170.288C 87.468,169.614 87.3502,169.18 86.8996,168.533C 86.8192,169.059 86.7277,169.574 86.6482,170.099C 86.8161,170.015 86.9739,169.92 87.1419,169.837C 87.2026,169.797 87.2568,169.72 87.2353,169.631 Z "/>
	<path fill="#412E33" fill-opacity="1" stroke-width="0.2" stroke-linejoin="miter" d="M 116.246,172.005C 125.778,171.736 134.679,170.183 142.898,168.183C 143.143,168.12 143.398,168.057 143.651,167.994C 143.575,168.091 143.508,168.189 143.45,168.286C 136.564,169.833 130.299,171.598 122.391,172.447C 117.864,172.939 113.079,173.094 108.29,172.997C 103.116,172.727 97.971,172.246 93.2297,171.524C 93.083,171.226 92.9177,170.928 92.735,170.636C 100.291,171.897 109.328,172.2 116.246,172.005 Z M 85.587,168.968C 85.4457,169.071 85.3497,169.169 85.2843,169.266C 84.9617,169.02 84.6443,168.767 84.3257,168.515C 84.7363,168.67 85.1604,168.819 85.5937,168.974 Z M 96.563,176.292C 96.4897,176.304 96.4164,176.309 96.347,176.315L 96.3083,176.258C 96.395,176.269 96.4763,176.281 96.563,176.292 Z M 96.743,176.309 Z M 158.064,160.59C 147.976,165.128 133.964,168.326 119.564,169.472C 106.132,170.538 84.5337,169.174 78.523,163.077C 78.4257,162.979 78.039,163.031 78.0577,163.134C 78.1857,163.868 81.0403,167.847 81.5389,168.471C 84.6014,172.928 84.4164,171.891 86.4097,175.169C 88.699,178.928 92.8881,182.825 96.1014,186.464C 98.856,188.346 100.453,189.907 104.991,191.668C 105.083,191.737 105.228,191.794 105.432,191.823C 105.875,191.886 106.314,191.943 106.751,191.995C 106.839,192.012 106.919,192.023 107.008,192.041C 107.902,192.167 108.816,192.241 109.736,192.281C 124.198,193.29 134.74,188.442 140.238,182.82C 143.608,179.375 146.427,175.816 149.156,172.269C 150.89,170.017 152.527,167.759 154.895,165.61C 155.767,164.819 156.464,164.051 156.779,163.249C 157.867,162.469 158.567,161.621 158.651,160.698C 158.663,160.567 158.267,160.498 158.064,160.59 Z "/>
	<path fill="#412E33" fill-opacity="1" stroke-width="0.2" stroke-linejoin="miter" d="M 131.807,199.829C 129.056,200.006 126.366,199.797 123.623,200.216C 122.431,200.409 121.319,200.57 120.164,201.021C 118.896,201.488 117.74,202.744 116.436,203.276C 116.295,203.34 116.308,203.646 116.474,203.614C 117.99,203.372 119.118,204.081 120.532,204.306C 122.252,204.58 123.964,204.5 125.69,204.306C 128.111,204.032 130.284,202.47 132.039,200.506C 132.244,200.28 132.091,199.813 131.807,199.829 Z "/>
</svg>
