<?xml version="1.0" encoding="utf-8"?>
<!DOCTYPE svg PUBLIC "-//W3C//DTD SVG 1.1//EN" "http://www.w3.org/Graphics/SVG/1.1/DTD/svg11.dtd">
<svg xmlns="http://www.w3.org/2000/svg" xmlns:xlink="http://www.w3.org/1999/xlink" version="1.1" baseProfile="full" width="240" height="240" viewBox="0 0 240.00 240.00" enable-background="new 0 0 240.00 240.00" xml:space="preserve">
	<ellipse fill="#FFFF00" fill-opacity="1" stroke-width="0.2" stroke-linejoin="miter" stroke="#412E33" stroke-opacity="0" cx="120" cy="120" rx="120" ry="120"/>
	<path fill="#412E33" fill-opacity="1" stroke-width="5.33334" stroke-linejoin="miter" d="M 58.6166,123.369C 64.3966,122.196 70.3179,122.996 75.9352,124.609C 79.0806,125.503 81.8099,126.849 84.3406,128.929C 86.2259,130.476 87.1686,132.236 89.4633,133.156C 90.2126,133.463 90.8432,132.716 90.9072,132.063C 91.4779,126.103 83.1913,122.476 78.5499,120.956C 71.9472,118.783 64.7286,120.369 58.4419,122.743C 58.0486,122.889 58.1966,123.463 58.6166,123.369 Z "/>
	<path fill="#412E33" fill-opacity="1" stroke-width="5.33334" stroke-linejoin="miter" d="M 90.1619,101.303C 89.4272,100.623 89.1939,99.8627 88.3019,99.2893C 87.3846,98.6894 86.1072,98.596 85.0512,98.6227C 82.3646,98.6627 79.7859,100.449 77.9566,102.249C 73.9699,106.183 72.7632,112.929 76.2499,117.529C 78.2632,120.196 82.7793,117.769 80.8459,114.849C 78.8646,111.849 79.1539,108.503 81.3552,105.649C 82.4352,104.249 83.9193,103.196 85.5992,102.676C 86.7352,102.316 88.7872,101.423 89.9792,101.609C 90.1499,101.636 90.3126,101.436 90.1619,101.303 Z "/>
	<path fill="#412E33" fill-opacity="1" stroke-width="5.33334" stroke-linejoin="miter" d="M 83.9326,96.9026C 75.2139,94.9026 72.0472,105.316 71.4819,112.076C 71.2153,115.249 71.3952,119.729 73.5726,122.303C 75.2526,124.289 78.6686,125.103 79.8232,122.169C 80.0259,121.649 79.7632,121.076 79.4339,120.689C 74.8046,115.289 76.4992,101.169 83.9326,98.6227C 84.7192,98.3561 84.8419,97.116 83.9326,96.9026 Z "/>
	<path fill="#412E33" fill-opacity="1" stroke-width="5.33334" stroke-linejoin="miter" d="M 82.0286,97.0493C 76.0859,96.7426 72.3659,101.649 69.8739,106.543C 67.8526,110.516 65.3059,118.409 70.9086,120.649C 74.0179,121.903 75.4072,117.276 73.0406,115.596C 72.0086,114.863 74.1406,108.983 74.6393,107.636C 75.7592,104.623 78.5259,98.4627 82.1286,97.796C 82.5632,97.7159 82.4312,97.0759 82.0286,97.0493 Z "/>
	<path fill="#412E33" fill-opacity="1" stroke-width="5.33334" stroke-linejoin="miter" d="M 58.1859,62.3694C 67.7313,55.676 79.6113,52.316 89.3099,45.8227C 90.3179,45.1427 89.9379,43.596 88.6953,43.5426C 82.3633,43.2893 77.1992,45.6093 71.7406,48.6093C 65.4312,52.0759 62.2166,56.4627 57.8073,61.8759C 57.6006,62.1293 57.8739,62.5826 58.1859,62.3694 Z "/>
	<path fill="#412E33" fill-opacity="1" stroke-width="5.33334" stroke-linejoin="miter" d="M 85.498,171.829C 85.5352,171.678 85.5724,171.526 85.6025,171.363C 85.7951,170.527 84.9708,169.401 84.0434,169.988C 83.9644,170.026 83.8853,170.065 83.8062,170.103C 82.9939,170.248 82.4424,171.066 82.5925,171.869C 83.3145,175.656 88.2077,185.285 93.3446,182.954C 93.8548,182.72 93.935,182.176 93.7772,181.704C 93.1124,179.714 90.7046,178.412 89.3622,176.827C 87.7401,174.919 86.885,172.473 85.221,170.585C 85.2629,171.202 85.3061,171.819 85.3492,172.436C 85.7242,171.867 85.7972,171.461 85.6472,170.792C 85.3485,171.235 85.0439,171.665 84.7465,172.107C 84.9399,172.072 85.1288,172.024 85.3224,171.989C 85.3966,171.968 85.4805,171.912 85.498,171.829 Z "/>
	<path fill="#412E33" fill-opacity="1" stroke-width="5.33334" stroke-linejoin="miter" d="M 179.307,110.743C 178.045,113.116 176.479,114.969 174.73,116.556C 175.403,113.636 175.025,110.316 173.95,107.383C 171.419,100.503 165.214,96.396 158.083,96.156C 151.433,95.9426 145.166,99.756 141.293,105.143C 141.386,102.956 141.597,100.783 141.954,98.6227C 143.929,86.7027 152.25,77.2226 163.875,74.0626C 168.857,72.7027 174.706,72.956 178.818,76.3561C 183.323,80.0759 183.531,87.756 183.513,93.0626C 183.493,99.156 182.165,105.343 179.307,110.743 Z M 166.862,110.156C 165.682,111.409 163.657,112.183 161.971,111.756C 159.685,111.196 159.357,107.889 159.443,106.009C 159.535,103.983 161.37,103.063 163.267,102.743C 164.845,103.583 166.274,104.823 167.499,106.409C 167.746,106.729 167.963,107.036 168.165,107.356C 167.887,108.343 167.637,109.343 166.862,110.156 Z M 158.059,115.636 Z M 172.011,68.0361C 158.587,67.0094 146.519,74.916 140.234,86.476C 133.269,99.2893 134.915,117.249 139.951,130.409C 140.073,130.729 140.275,131.009 140.518,131.236C 138.675,132.689 136.903,134.316 135.167,136.156C 135.022,136.316 135.207,136.569 135.395,136.463C 141.837,132.596 149.487,129.943 156.801,128.436C 164.599,126.823 172.895,127.929 180.461,125.223C 181.025,125.023 181.027,124.276 180.461,124.076C 177.931,123.169 175.293,122.703 172.611,122.516C 182.419,116.703 187.67,107.663 188.751,94.996C 189.759,83.2092 185.754,69.1026 172.011,68.0361 Z "/>
	<path fill="#412E33" fill-opacity="1" stroke-width="5.33334" stroke-linejoin="miter" d="M 84.8073,106.023C 87.0792,104.396 93.3819,104.849 92.8179,108.796C 92.5033,110.569 92.1566,112.316 90.5179,113.183C 88.9206,114.009 86.3579,113.423 84.9379,112.209C 83.1379,110.689 82.5846,107.596 84.8073,106.023 Z M 65.4179,103.929C 64.4713,105.876 63.8326,108.863 63.8473,111.823C 63.5233,111.049 63.2299,110.236 63.0126,109.329C 61.7833,104.183 61.4673,99.4627 62.8406,94.316C 65.0033,86.2359 72.2673,78.956 80.7699,78.116C 92.5499,76.956 97.9393,90.8093 98.8792,100.249C 99.1299,102.769 99.0619,105.289 98.7366,107.769C 96.7273,100.383 91.5459,93.8759 84.3446,93.6494C 76.6419,93.4226 68.8792,96.7827 65.4179,103.929 Z M 82.2699,123.543C 82.4486,123.796 82.6606,124.009 82.8993,124.169C 83.3699,125.636 84.9579,126.596 86.5419,125.783C 86.6766,127.023 87.9099,127.996 89.1326,127.956C 88.9966,128.463 89.4366,128.889 89.9139,128.969C 89.6606,129.796 89.4819,130.636 89.4526,131.529C 89.4246,132.343 90.6592,132.716 91.0246,131.956C 92.1566,129.583 94.6246,127.489 96.2352,125.369C 96.5073,125.023 96.7446,124.649 97.0406,124.236C 99.0126,121.436 100.543,118.489 101.793,115.263C 104.709,107.743 104.397,99.1427 102.397,91.4627C 99.6499,80.9293 90.6126,71.1694 78.9339,73.0893C 68.5126,74.796 60.9166,83.1827 57.7979,92.9293C 54.6246,102.849 57.1899,119.409 68.9219,122.289C 69.7166,122.489 70.6686,121.556 70.0872,120.783C 69.6979,120.263 69.3086,119.769 68.9219,119.289C 69.6606,116.583 68.9592,113.383 69.0833,110.636C 69.3873,103.956 74.6793,100.556 80.6126,99.1827C 84.2166,98.3561 86.9766,99.316 89.0632,101.236C 87.9739,100.943 86.8513,100.823 85.8459,100.916C 79.4832,101.516 76.5606,108.183 79.2232,113.649C 79.3659,113.943 79.5313,114.223 79.7112,114.489C 79.3966,114.596 79.0939,114.716 78.7966,114.876C 78.1179,114.823 77.4099,115.023 76.8112,115.543C 75.3086,116.876 73.9526,118.276 73.6152,120.276C 73.4299,121.369 74.0886,122.649 75.3619,122.583C 76.5579,122.516 77.3779,122.143 78.1046,121.609C 78.2712,123.516 80.4592,124.836 82.2699,123.543 Z "/>
	<path fill="#412E33" fill-opacity="1" stroke-width="5.33334" stroke-linejoin="miter" d="M 178.074,45.5826C 174.65,43.4894 163.246,37.3294 160.185,42.5426C 159.87,43.0893 159.865,43.7827 160.185,44.316C 161.982,47.3294 169.079,47.7027 172.203,48.6627C 177.665,50.3694 187.574,53.8494 189.939,59.7827C 189.983,59.9026 190.138,59.8627 190.119,59.7426C 189.063,52.9293 183.694,48.996 178.074,45.5826 Z "/>
	<path fill="#412E33" fill-opacity="1" stroke-width="5.33334" stroke-linejoin="miter" d="M 115.634,175.316C 125.166,174.952 134.067,172.858 142.286,170.16C 142.531,170.075 142.786,169.989 143.039,169.904C 142.963,170.036 142.896,170.167 142.838,170.299C 135.952,172.386 129.687,174.767 121.779,175.911C 117.253,176.576 112.467,176.785 107.678,176.653C 102.504,176.29 97.3592,175.641 92.6179,174.666C 92.4712,174.264 92.3059,173.862 92.1232,173.468C 99.6792,175.169 108.716,175.579 115.634,175.316 Z M 84.9752,171.219C 84.8339,171.358 84.7379,171.489 84.6725,171.621C 84.3499,171.288 84.0325,170.948 83.7139,170.608C 84.1245,170.817 84.5486,171.018 84.9819,171.226 Z M 95.9512,181.098C 95.8779,181.114 95.8045,181.122 95.7352,181.129L 95.6965,181.052C 95.7832,181.067 95.8646,181.083 95.9512,181.098 Z M 96.1312,181.122 Z M 157.452,159.917C 147.365,166.039 133.353,170.353 118.952,171.899C 105.521,173.337 83.9219,171.497 77.9112,163.272C 77.8139,163.14 77.4272,163.21 77.4459,163.349C 77.5739,164.338 80.4284,169.706 80.9271,170.549C 83.9896,176.56 83.8045,175.161 85.7979,179.583C 88.0872,184.654 91.7872,189.664 95.0005,194.573C 96.9219,197.51 99.5845,200.386 104.379,201.84C 104.471,201.932 104.617,202.01 104.82,202.048C 105.263,202.133 105.702,202.211 106.139,202.28C 106.227,202.303 106.307,202.319 106.396,202.342C 107.29,202.512 108.205,202.613 109.124,202.667C 123.586,204.027 134.129,197.487 139.626,189.903C 142.997,185.257 145.815,180.457 148.544,175.671C 150.278,172.633 151.915,169.588 154.283,166.689C 155.155,165.622 155.853,164.586 156.167,163.504C 157.255,162.452 157.955,161.308 158.039,160.063C 158.051,159.886 157.655,159.793 157.452,159.917 Z "/>
	<path fill="#412E33" fill-opacity="1" stroke-width="5.33334" stroke-linejoin="miter" d="M 124.945,210.948C 122.195,211.125 119.504,210.916 116.761,211.334C 115.569,211.528 114.457,211.689 113.303,212.14C 112.035,212.607 110.879,213.863 109.575,214.394C 109.433,214.459 109.447,214.765 109.612,214.732C 111.128,214.491 112.256,215.2 113.671,215.425C 115.391,215.699 117.103,215.618 118.828,215.425C 121.249,215.151 123.423,213.589 125.177,211.624C 125.383,211.399 125.229,210.932 124.945,210.948 Z "/>
</svg>
