<?xml version="1.0" encoding="utf-8"?>
<!DOCTYPE svg PUBLIC "-//W3C//DTD SVG 1.1//EN" "http://www.w3.org/Graphics/SVG/1.1/DTD/svg11.dtd">
<svg xmlns="http://www.w3.org/2000/svg" xmlns:xlink="http://www.w3.org/1999/xlink" version="1.1" baseProfile="full" width="240" height="240" viewBox="0 0 240.00 240.00" enable-background="new 0 0 240.00 240.00" xml:space="preserve">
	<ellipse fill="#FFFF00" fill-opacity="1" stroke-width="0.2" stroke-linejoin="miter" stroke="#412E33" stroke-opacity="0" cx="120" cy="120" rx="120" ry="120"/>
	<path fill="#412E33" fill-opacity="1" stroke-width="0.2" stroke-linejoin="miter" d="M 67.2153,68.5466C 71.3946,66.6836 75.2605,64.4957 79.717,63.2918C 82.2947,62.5956 84.9847,62.1769 87.6239,61.805C 89.9066,61.4835 91.8593,61.6984 93.8582,60.4898C 94.8907,59.8653 95.0267,58.0201 93.7954,57.492C 89.3645,55.5921 82.9303,58.3044 78.7291,60.0007C 74.3515,61.7675 69.5669,64.0675 66.8161,68.0508C 66.6525,68.2873 66.9451,68.6674 67.2153,68.5466 Z "/>
	<path fill="#412E33" fill-opacity="1" stroke-width="0.2" stroke-linejoin="miter" d="M 152.754,58.529C 156.219,59.1509 161.438,59.5497 164.481,61.3668C 164.741,61.5198 164.993,61.1634 164.749,60.9811C 163.283,59.889 162.195,58.4125 160.752,57.2911C 158.992,55.9211 156.883,54.9407 154.79,54.2001C 151.91,53.182 146.222,52.1089 144.337,55.3455C 143.988,55.9463 143.984,56.895 144.686,57.2819C 146.973,58.5424 150.187,58.0671 152.754,58.529 Z "/>
	<path fill="#412E33" fill-opacity="1" stroke-width="0.2" stroke-linejoin="miter" d="M 147.604,81.1981C 164.938,79.3647 174.123,98.4227 166.313,112.988C 164.167,116.99 160.51,119.427 156.359,120.595C 157.287,119.714 158.087,118.725 158.69,117.689C 161.505,112.852 160.478,106.402 157.238,102.078C 153.203,96.6942 146.23,95.6479 139.995,96.9214C 134.681,98.0073 129.503,103.113 130.376,108.354C 129.873,107.164 129.446,105.931 129.1,104.676C 129.214,100.71 130.079,96.6766 131.073,93.2781C 133.372,85.4155 139.438,81.8647 147.604,81.1981 Z M 152.831,103.298C 152.99,104.394 153.079,105.503 153.119,106.557C 153.17,107.862 152.517,108.869 151.894,109.903C 150.214,110.613 148.491,110.721 146.591,110.122C 144.159,109.354 142.535,106.964 143.179,104.485C 143.982,101.395 147.614,102.382 149.95,101.453C 150.997,101.91 151.965,102.526 152.831,103.298 Z M 157.873,125.418C 163.533,123.533 168.497,119.794 171.277,114.378C 175.183,106.766 175.438,98.1981 172.104,88.8647C 167.604,78.0314 156.088,75.3647 147.771,75.5314C 136.271,76.1981 129.145,83.2124 126.965,92.0014C 122.082,101.77 125.958,115.751 134.616,122.194C 136.219,123.386 137.973,124.317 139.805,125.044C 137.424,125.231 134.563,125.698 132.063,127.031C 131.828,127.059 132.231,127.026 132.479,127.031C 139.229,126.531 146.323,127.49 153.149,128.083C 159.917,128.673 167.476,127.739 174.229,125.781C 174.316,125.79 174.316,125.462 174.229,125.448C 168.944,126.57 163.13,126.258 157.873,125.418 Z "/>
	<path fill="#412E33" fill-opacity="1" stroke-width="0.2" stroke-linejoin="miter" d="M 99.4377,81.5314C 106.679,91.4324 101.85,107.9 93.2797,112.787C 95.3793,108.384 94.8208,103.215 89.4556,99.2983C 86.0207,96.7905 77.6776,97.5587 71.7707,100.275C 72.3052,99.021 75.7248,92.1303 76.4377,90.8647C 84.2983,79.4721 90.1797,74.5627 99.4377,81.5314 Z M 84.5812,101.246C 84.8142,101.289 85.0245,101.357 85.244,101.414C 85.5175,101.863 85.7713,102.323 86.0324,102.732C 86.8325,103.983 87.55,104.853 87.5584,106.385C 87.5701,108.633 85.076,110.36 83.0584,110.574C 80.1444,110.884 78.74,107.943 79.2603,105.411C 79.7336,103.109 81.1919,101.77 83.0467,101.084C 83.5786,101.111 84.0974,101.158 84.5812,101.246 Z M 91.0891,120.083C 90.7738,119.987 90.4574,119.922 90.1417,119.841C 91.0518,119.516 91.9211,119.171 92.7244,118.811C 105.661,113.017 115.207,90.7293 102.938,77.3647C 96.7469,70.6206 88.6043,72.5307 81.4377,77.8647C 78.1043,80.6977 76.1845,83.5053 74.271,85.5314C 68.1043,92.5311 65.1151,102.916 64.9497,109.762C 64.8117,115.46 67.1183,118.781 70.5695,120.509C 67.6738,119.914 63.1668,118.364 59.0419,118.99C 58.8246,118.962 63.8356,120.461 66.7918,121.656C 84.3372,125.968 82.1043,122.531 91.6044,124.198C 92.5418,124.102 92.4377,121.864 91.0891,120.083 Z "/>
	<path fill="#412E33" fill-opacity="1" stroke-width="5.33334" stroke-linejoin="miter" d="M 85.6813,180.851C 85.5769,180.743 85.4726,180.635 85.3536,180.521C 84.7699,179.927 83.2557,179.404 83.1326,180.022C 83.1124,180.068 83.0922,180.113 83.072,180.158C 82.6491,180.459 82.9765,181.133 83.7617,181.617C 87.4775,183.9 98.9804,188.925 100.445,186.098C 100.588,185.815 100.178,185.441 99.6697,185.173C 97.5254,184.047 94.7962,183.812 92.5418,183.122C 89.8237,182.292 87.1623,180.917 84.4335,180.111C 84.9884,180.503 85.5437,180.894 86.099,181.284C 85.8657,180.818 85.5679,180.535 84.8967,180.138C 85.0736,180.502 85.2362,180.86 85.4134,181.224C 85.5134,181.152 85.5996,181.072 85.6998,181C 85.7314,180.967 85.7402,180.91 85.6813,180.851 Z "/>
	<path fill="#412E33" fill-opacity="1" stroke-width="5.33334" stroke-linejoin="miter" d="M 116.109,181.992C 125.641,181.9 134.545,181.196 142.767,180.279C 143.013,180.25 143.268,180.221 143.521,180.192C 143.445,180.238 143.378,180.284 143.319,180.33C 136.431,181.038 130.833,182.569 122.924,182.942C 117.721,183.987 113.213,183.098 108.424,183.034C 103.251,182.887 97.8339,182.038 93.0939,181.678C 92.9477,181.537 92.7829,181.395 92.6007,181.256C 100.154,181.881 109.191,182.059 116.109,181.992 Z M 85.4557,180.439C 85.3142,180.487 85.218,180.533 85.1525,180.579C 84.8303,180.461 84.5134,180.34 84.1952,180.22C 84.6056,180.294 85.0293,180.367 85.4624,180.441 Z M 96.4188,183.951C 96.3454,183.956 96.2721,183.958 96.2027,183.961L 96.1642,183.933C 96.2508,183.939 96.3322,183.945 96.4188,183.951 Z M 96.5988,183.959 Z M 157.947,176.736C 147.851,178.85 133.834,180.314 119.432,180.804C 105.998,181.259 84.402,180.533 78.4021,177.62C 78.305,177.574 77.9182,177.597 77.9367,177.646C 78.0634,177.994 80.9109,179.89 81.4085,180.188C 84.4631,182.312 84.2799,181.82 86.2675,183.381C 88.9356,184.917 93.5379,186.843 96.9034,188.348C 99.6637,189.677 100.816,190.001 105.004,191.081C 105.095,191.114 106.412,191.262 106.511,191.322C 107.932,191.5 107.088,191.411 107.561,191.476C 107.649,191.484 107.77,191.506 107.859,191.514C 108.752,191.577 108.644,191.555 109.564,191.577C 124.023,192.109 133.841,189.291 139.348,186.647C 142.725,185.027 146.283,183.91 149.019,182.239C 150.756,181.178 152.397,180.114 154.769,179.104C 155.643,178.732 156.341,178.371 156.657,177.992C 157.747,177.626 162.016,175.465 162.102,175.028C 162.114,174.965 158.15,176.694 157.947,176.736 Z "/>
	<path fill="#412E33" fill-opacity="1" stroke-width="5.33334" stroke-linejoin="miter" d="M 137.682,193.704C 134.931,193.881 132.241,193.672 129.498,194.091C 128.306,194.284 127.194,194.445 126.039,194.896C 124.771,195.363 123.615,196.619 122.311,197.151C 122.17,197.215 122.183,197.521 122.349,197.489C 123.865,197.247 124.993,197.956 126.407,198.181C 128.127,198.455 129.839,198.375 131.565,198.181C 133.986,197.907 136.159,196.345 137.914,194.381C 138.119,194.155 137.966,193.688 137.682,193.704 Z "/>
</svg>
