<?xml version="1.0" encoding="utf-8"?>
<!DOCTYPE svg PUBLIC "-//W3C//DTD SVG 1.1//EN" "http://www.w3.org/Graphics/SVG/1.1/DTD/svg11.dtd">
<svg xmlns="http://www.w3.org/2000/svg" xmlns:xlink="http://www.w3.org/1999/xlink" version="1.1" baseProfile="full" width="240" height="240" viewBox="0 0 240.00 240.00" enable-background="new 0 0 240.00 240.00" xml:space="preserve">
	<ellipse fill="#FFFF00" fill-opacity="1" stroke-width="0.2" stroke-linejoin="miter" stroke="#412E33" stroke-opacity="0" cx="120" cy="120" rx="120" ry="120"/>
	<path fill="#412E33" fill-opacity="1" stroke-width="5.33334" stroke-linejoin="miter" d="M 58.6166,123.369C 64.3966,122.196 70.3179,122.996 75.9352,124.609C 79.0806,125.503 81.8099,126.849 84.3406,128.929C 86.2259,130.476 87.1686,132.236 89.4633,133.156C 90.2126,133.463 90.8432,132.716 90.9072,132.063C 91.4779,126.103 83.1913,122.476 78.5499,120.956C 71.9472,118.783 64.7286,120.369 58.4419,122.743C 58.0486,122.889 58.1966,123.463 58.6166,123.369 Z "/>
	<path fill="#412E33" fill-opacity="1" stroke-width="5.33334" stroke-linejoin="miter" d="M 90.1619,101.303C 89.4272,100.623 89.1939,99.8627 88.3019,99.2893C 87.3846,98.6894 86.1072,98.596 85.0512,98.6227C 82.3646,98.6627 79.7859,100.449 77.9566,102.249C 73.9699,106.183 72.7632,112.929 76.2499,117.529C 78.2632,120.196 82.7793,117.769 80.8459,114.849C 78.8646,111.849 79.1539,108.503 81.3552,105.649C 82.4352,104.249 83.9193,103.196 85.5992,102.676C 86.7352,102.316 88.7872,101.423 89.9792,101.609C 90.1499,101.636 90.3126,101.436 90.1619,101.303 Z "/>
	<path fill="#412E33" fill-opacity="1" stroke-width="5.33334" stroke-linejoin="miter" d="M 83.9326,96.9026C 75.2139,94.9026 72.0472,105.316 71.4819,112.076C 71.2153,115.249 71.3952,119.729 73.5726,122.303C 75.2526,124.289 78.6686,125.103 79.8232,122.169C 80.0259,121.649 79.7632,121.076 79.4339,120.689C 74.8046,115.289 76.4992,101.169 83.9326,98.6227C 84.7192,98.3561 84.8419,97.116 83.9326,96.9026 Z "/>
	<path fill="#412E33" fill-opacity="1" stroke-width="5.33334" stroke-linejoin="miter" d="M 82.0286,97.0493C 76.0859,96.7426 72.3659,101.649 69.8739,106.543C 67.8526,110.516 65.3059,118.409 70.9086,120.649C 74.0179,121.903 75.4072,117.276 73.0406,115.596C 72.0086,114.863 74.1406,108.983 74.6393,107.636C 75.7592,104.623 78.5259,98.4627 82.1286,97.796C 82.5632,97.7159 82.4312,97.0759 82.0286,97.0493 Z "/>
	<path fill="#412E33" fill-opacity="1" stroke-width="5.33334" stroke-linejoin="miter" d="M 58.1859,62.3694C 67.7313,55.676 79.6113,52.316 89.3099,45.8227C 90.3179,45.1427 89.9379,43.596 88.6953,43.5426C 82.3633,43.2893 77.1992,45.6093 71.7406,48.6093C 65.4312,52.0759 62.2166,56.4627 57.8073,61.8759C 57.6006,62.1293 57.8739,62.5826 58.1859,62.3694 Z "/>
	<path fill="#412E33" fill-opacity="1" stroke-width="5.33334" stroke-linejoin="miter" d="M 86.4981,176.579C 86.5353,176.428 86.5725,176.276 86.6026,176.113C 86.7952,175.277 85.9709,174.151 85.0435,174.737C 84.9644,174.776 84.8854,174.815 84.8063,174.853C 83.994,174.998 83.4426,175.816 83.5926,176.619C 84.3146,180.406 89.2079,190.035 94.3447,187.704C 94.8549,187.47 94.9351,186.926 94.7773,186.454C 94.1125,184.464 91.7047,183.162 90.3623,181.577C 88.7402,179.669 87.8851,177.222 86.2211,175.335C 86.263,175.952 86.3062,176.569 86.3493,177.186C 86.7243,176.617 86.7973,176.21 86.6473,175.542C 86.3486,175.985 86.044,176.415 85.7466,176.857C 85.9401,176.822 86.129,176.774 86.3225,176.739C 86.3967,176.718 86.4807,176.662 86.4981,176.579 Z "/>
	<path fill="#412E33" fill-opacity="1" stroke-width="5.33334" stroke-linejoin="miter" d="M 179.307,110.743C 178.045,113.116 176.479,114.969 174.73,116.556C 175.403,113.636 175.025,110.316 173.95,107.383C 171.419,100.503 165.214,96.396 158.083,96.156C 151.433,95.9426 145.166,99.756 141.293,105.143C 141.386,102.956 141.597,100.783 141.954,98.6227C 143.929,86.7027 152.25,77.2226 163.875,74.0626C 168.857,72.7027 174.706,72.956 178.818,76.3561C 183.323,80.0759 183.531,87.756 183.513,93.0626C 183.493,99.156 182.165,105.343 179.307,110.743 Z M 166.862,110.156C 165.682,111.409 163.657,112.183 161.971,111.756C 159.685,111.196 159.357,107.889 159.443,106.009C 159.535,103.983 161.37,103.063 163.267,102.743C 164.845,103.583 166.274,104.823 167.499,106.409C 167.746,106.729 167.963,107.036 168.165,107.356C 167.887,108.343 167.637,109.343 166.862,110.156 Z M 158.059,115.636 Z M 172.011,68.0361C 158.587,67.0094 146.519,74.916 140.234,86.476C 133.269,99.2893 134.915,117.249 139.951,130.409C 140.073,130.729 140.275,131.009 140.518,131.236C 138.675,132.689 136.903,134.316 135.167,136.156C 135.022,136.316 135.207,136.569 135.395,136.463C 141.837,132.596 149.487,129.943 156.801,128.436C 164.599,126.823 172.895,127.929 180.461,125.223C 181.025,125.023 181.027,124.276 180.461,124.076C 177.931,123.169 175.293,122.703 172.611,122.516C 182.419,116.703 187.67,107.663 188.751,94.996C 189.759,83.2092 185.754,69.1026 172.011,68.0361 Z "/>
	<path fill="#412E33" fill-opacity="1" stroke-width="5.33334" stroke-linejoin="miter" d="M 84.8073,106.023C 87.0792,104.396 93.3819,104.849 92.8179,108.796C 92.5033,110.569 92.1566,112.316 90.5179,113.183C 88.9206,114.009 86.3579,113.423 84.9379,112.209C 83.1379,110.689 82.5846,107.596 84.8073,106.023 Z M 65.4179,103.929C 64.4713,105.876 63.8326,108.863 63.8473,111.823C 63.5233,111.049 63.2299,110.236 63.0126,109.329C 61.7833,104.183 61.4673,99.4627 62.8406,94.316C 65.0033,86.2359 72.2673,78.956 80.7699,78.116C 92.5499,76.956 97.9393,90.8093 98.8792,100.249C 99.1299,102.769 99.0619,105.289 98.7366,107.769C 96.7273,100.383 91.5459,93.8759 84.3446,93.6494C 76.6419,93.4226 68.8792,96.7827 65.4179,103.929 Z M 82.2699,123.543C 82.4486,123.796 82.6606,124.009 82.8993,124.169C 83.3699,125.636 84.9579,126.596 86.5419,125.783C 86.6766,127.023 87.9099,127.996 89.1326,127.956C 88.9966,128.463 89.4366,128.889 89.9139,128.969C 89.6606,129.796 89.4819,130.636 89.4526,131.529C 89.4246,132.343 90.6592,132.716 91.0246,131.956C 92.1566,129.583 94.6246,127.489 96.2352,125.369C 96.5073,125.023 96.7446,124.649 97.0406,124.236C 99.0126,121.436 100.543,118.489 101.793,115.263C 104.709,107.743 104.397,99.1427 102.397,91.4627C 99.6499,80.9293 90.6126,71.1694 78.9339,73.0893C 68.5126,74.796 60.9166,83.1827 57.7979,92.9293C 54.6246,102.849 57.1899,119.409 68.9219,122.289C 69.7166,122.489 70.6686,121.556 70.0872,120.783C 69.6979,120.263 69.3086,119.769 68.9219,119.289C 69.6606,116.583 68.9592,113.383 69.0833,110.636C 69.3873,103.956 74.6793,100.556 80.6126,99.1827C 84.2166,98.3561 86.9766,99.316 89.0632,101.236C 87.9739,100.943 86.8513,100.823 85.8459,100.916C 79.4832,101.516 76.5606,108.183 79.2232,113.649C 79.3659,113.943 79.5313,114.223 79.7112,114.489C 79.3966,114.596 79.0939,114.716 78.7966,114.876C 78.1179,114.823 77.4099,115.023 76.8112,115.543C 75.3086,116.876 73.9526,118.276 73.6152,120.276C 73.4299,121.369 74.0886,122.649 75.3619,122.583C 76.5579,122.516 77.3779,122.143 78.1046,121.609C 78.2712,123.516 80.4592,124.836 82.2699,123.543 Z "/>
	<path fill="#412E33" fill-opacity="1" stroke-width="5.33334" stroke-linejoin="miter" d="M 178.074,45.5826C 174.65,43.4894 163.246,37.3294 160.185,42.5426C 159.87,43.0893 159.865,43.7827 160.185,44.316C 161.982,47.3294 169.079,47.7027 172.203,48.6627C 177.665,50.3694 187.574,53.8494 189.939,59.7827C 189.983,59.9026 190.138,59.8627 190.119,59.7426C 189.063,52.9293 183.694,48.996 178.074,45.5826 Z "/>
	<path fill="#412E33" fill-opacity="1" stroke-width="5.33334" stroke-linejoin="miter" d="M 116.134,179.654C 125.666,179.368 134.567,177.72 142.786,175.598C 143.031,175.531 143.286,175.464 143.539,175.398C 143.463,175.501 143.397,175.604 143.338,175.708C 136.453,177.349 130.187,179.222 122.279,180.122C 117.753,180.645 112.967,180.809 108.178,180.706C 103.005,180.42 97.8592,179.909 93.1179,179.143C 92.9712,178.827 92.8059,178.511 92.6232,178.201C 100.179,179.538 109.217,179.861 116.134,179.654 Z M 85.4752,176.431C 85.3339,176.541 85.2379,176.644 85.1725,176.747C 84.8499,176.486 84.5325,176.218 84.2139,175.951C 84.6245,176.115 85.0486,176.273 85.4819,176.437 Z M 96.4512,184.202C 96.3779,184.214 96.3045,184.22 96.2352,184.226L 96.1965,184.166C 96.2832,184.178 96.3646,184.19 96.4512,184.202 Z M 96.6312,184.22 Z M 157.953,167.542C 147.865,172.357 133.853,175.75 119.453,176.966C 106.021,178.097 84.4219,176.65 78.4112,170.18C 78.3139,170.077 77.9272,170.132 77.9459,170.241C 78.0739,171.02 80.9284,175.241 81.4271,175.904C 84.4896,180.633 84.3045,179.532 86.2979,183.01C 88.5872,186.999 92.7762,191.133 95.9896,194.994C 98.7442,196.991 100.341,198.648 104.879,200.516C 104.971,200.589 105.117,200.65 105.321,200.68C 105.763,200.747 106.202,200.808 106.639,200.863C 106.727,200.881 106.807,200.893 106.897,200.911C 107.79,201.045 108.705,201.124 109.625,201.167C 124.086,202.237 134.629,197.093 140.126,191.128C 143.497,187.473 146.315,183.697 149.045,179.934C 150.778,177.544 152.415,175.148 154.783,172.868C 155.655,172.029 156.353,171.214 156.667,170.363C 157.755,169.536 158.455,168.636 158.539,167.657C 158.551,167.517 158.155,167.444 157.953,167.542 Z "/>
	<path fill="#412E33" fill-opacity="1" stroke-width="5.33334" stroke-linejoin="miter" d="M 131.695,208.448C 128.945,208.625 126.254,208.416 123.511,208.834C 122.319,209.028 121.207,209.189 120.053,209.64C 118.785,210.107 117.629,211.363 116.325,211.894C 116.183,211.959 116.197,212.265 116.362,212.232C 117.878,211.991 119.006,212.7 120.421,212.925C 122.141,213.199 123.853,213.118 125.578,212.925C 127.999,212.651 130.173,211.089 131.927,209.124C 132.133,208.899 131.979,208.432 131.695,208.448 Z "/>
</svg>
