<?xml version="1.0" encoding="utf-8"?>
<!DOCTYPE svg PUBLIC "-//W3C//DTD SVG 1.1//EN" "http://www.w3.org/Graphics/SVG/1.1/DTD/svg11.dtd">
<svg xmlns="http://www.w3.org/2000/svg" xmlns:xlink="http://www.w3.org/1999/xlink" version="1.1" baseProfile="full" width="240" height="240" viewBox="0 0 240.00 240.00" enable-background="new 0 0 240.00 240.00" xml:space="preserve">
	<ellipse fill="#FFFF00" fill-opacity="1" stroke-width="0.2" stroke-linejoin="miter" stroke="#412E33" stroke-opacity="0" cx="120" cy="120" rx="120" ry="120"/>
	<path fill="#412E33" fill-opacity="1" stroke-width="0.2" stroke-linejoin="miter" d="M 118.542,183.07C 110.408,183.365 97.3203,180.682 90.8152,178.729C 86.4922,178.743 95.7155,178.47 95.9999,178.479C 102.253,177.979 113.021,175.813 118.771,176C 125.041,176.976 128,177.229 134.378,177.979C 134.875,177.998 140.809,178.258 140.378,178.479C 135.27,181.132 125.599,182.821 118.542,183.07 Z "/>
	<path fill="#412E33" fill-opacity="1" stroke-width="0.2" stroke-linejoin="miter" d="M 177.145,115.764C 174.329,122.895 167.555,125.629 160.379,125.157C 157.215,124.945 154.635,124.003 152.741,122.383C 153.661,122.681 154.552,122.895 155.325,122.99C 160.931,123.7 165.871,121.068 169.633,117.093C 172.777,113.763 175.679,109.121 174.874,104.344C 174.773,103.757 174.565,103.186 174.277,102.646C 176.207,103.505 177.757,104.58 178.381,107.152C 179.074,110.001 178.184,113.138 177.145,115.764 Z M 155.241,113.784C 153.349,112.385 152.909,110.16 152.991,108.868C 153.097,107.27 155.647,105.24 158.824,105.076C 160.704,105.85 162.465,106.002 162.824,108.118C 163.047,109.428 162.189,110.139 161.408,111.451C 159.638,112.962 157.008,114.962 155.241,113.784 Z M 167.752,96.1682C 166.653,96.2674 165.559,96.4071 164.471,96.5609C 160.072,96.5814 156.087,96.4394 151.676,96.512C 149.65,96.5538 143.62,96.9225 140.283,97.5773C 138.739,97.9178 138.807,98.7737 138.828,98.8698C 138.9,101.768 141.339,101.678 145.774,103.069C 143.844,106.688 143.439,112.423 143.458,115.013C 143.537,125.639 151.303,130.745 161.357,131.467C 172.066,132.23 181.414,124.498 183.546,114.077C 184.336,110.205 183.764,104.929 181.611,101.432C 182.971,101.199 184.294,100.883 185.566,100.44C 186.169,100.235 186.075,99.4744 185.704,99.127C 180.929,94.6033 173.834,95.5605 167.752,96.1682 Z "/>
	<path fill="#412E33" fill-opacity="1" stroke-width="0.2" stroke-linejoin="miter" d="M 152.801,75.7344C 156.817,76.2427 161.057,75.4288 165.075,75.2828C 168.969,75.1565 172.987,75.5849 176.859,75.4836C 177.683,75.4663 182.102,73.8315 181.682,73.0184C 178.92,67.683 169.053,69.017 163.535,69.2731C 160.059,69.4383 156.625,70.0469 153.139,70.1179C 149.721,70.1796 146.484,69.0367 143.102,69.114C 142.808,69.1231 142.507,69.3721 142.598,69.6981C 143.885,74.2503 148.578,75.2002 152.801,75.7344 Z "/>
	<path fill="#412E33" fill-opacity="1" stroke-width="0.2" stroke-linejoin="miter" d="M 84.3184,125.541C 86.0793,125.366 87.7531,124.812 89.2924,123.998C 84.9069,123.836 74.4091,116.344 77.3539,119.088C 80.3956,121.944 71.4498,109.047 72.5114,103.962C 71.243,104.216 69.9541,104.455 68.6554,104.654C 67.5445,105.317 66.2683,105.825 65.0058,106.173C 66.4828,116.664 71.909,126.801 84.3184,125.541 Z M 80.3645,107.758C 79.793,111.065 87.0079,117.843 89.6979,114.258C 91.931,111.496 91.4555,109.549 90.531,107.925C 87.3645,104.717 79.9452,104.746 80.3645,107.758 Z M 59.5424,106.528C 56.5006,105.654 49.8086,103.727 45.7773,101.258C 48.871,101.321 51.9959,100.633 54.1522,100.102C 56.5428,99.5083 55.7549,99.8657 57.6993,99.3832C 59.4206,99.1812 61.281,98.8911 61.3869,98.8832C 63.2772,98.5083 62.7147,98.7895 64.982,97.9904C 67.588,97.3756 67.4873,97.7042 69.7734,97.0727C 77.8777,94.5724 87.1053,94.8208 94.6053,95.9458C 101.168,97.1958 113.168,97.7583 113.215,100.441C 113.443,100.467 113.521,100.778 113.31,100.887C 110.23,103.696 104.487,103.23 99.7882,102.383C 101.839,104.654 102.96,108.023 103.251,111.95C 103.872,120.301 97.8722,127.29 90.538,130.258C 83.2357,133.228 74.5704,131.774 68.568,126.76C 63.3902,122.444 59.0717,113.847 59.5424,106.528 Z "/>
	<path fill="#412E33" fill-opacity="1" stroke-width="0.2" stroke-linejoin="miter" d="M 82.2914,79.2166C 88.0841,79.6283 93.3743,80.0876 96.9561,75.5051C 97.8477,74.4138 97.2981,73.5835 95.4655,72.6965C 92.7164,71.896 91.06,72.4207 88.1533,72.502C 85.4254,72.4156 81.8485,72.8925 79.1007,72.6322C 71.8094,71.9478 65.4581,75.0685 58.3607,75.2975C 58.219,75.3064 58.214,75.5062 58.3535,75.5239C 66.2441,77.1863 74.1709,77.9791 82.2914,79.2166 Z "/>
</svg>
