<?xml version="1.0" encoding="utf-8"?>
<!DOCTYPE svg PUBLIC "-//W3C//DTD SVG 1.1//EN" "http://www.w3.org/Graphics/SVG/1.1/DTD/svg11.dtd">
<svg xmlns="http://www.w3.org/2000/svg" xmlns:xlink="http://www.w3.org/1999/xlink" version="1.1" baseProfile="full" width="240" height="240" viewBox="0 0 240.00 240.00" enable-background="new 0 0 240.00 240.00" xml:space="preserve">
	<ellipse fill="#FFFF00" fill-opacity="1" stroke-width="0.2" stroke-linejoin="miter" stroke="#412E33" stroke-opacity="0" cx="120" cy="120" rx="120" ry="120"/>
	<path fill="#412E33" fill-opacity="1" stroke-width="0.2" stroke-linejoin="miter" d="M 86.6613,119.907C 85.4013,120.174 84.124,120.457 82.8413,120.743C 77.1133,120.518 71.024,118.976 70.6653,112.432C 70.5267,109.904 71.152,102.979 73.516,99.3809C 74.74,99.1517 75.9613,98.8463 77.1773,98.4622C 77.2706,100.022 77.9093,101.689 78.8586,102.764C 82.3333,106.699 88.0186,107.613 92.7386,105.428C 95.3147,104.236 97.1959,102.404 98.5093,100.15C 99.0373,99.599 99.2186,99.0912 99.284,98.5143C 99.9279,96.9323 100.325,95.209 100.456,93.3893C 100.648,90.7383 98.76,86.9167 96.1,85.5117C 97.5533,83.7884 98.8493,81.9713 99.9533,80.0912C 101.344,81.9662 102.716,83.7852 103.46,86.3066C 104.837,90.9688 103.805,96.2057 102.696,100.803C 101.049,107.635 98.1307,114.2 92.8147,118.659C 90.7347,119.107 88.6533,119.486 86.6613,119.907 Z M 81.784,97.4987C 81.7067,97.2448 81.632,96.9915 81.5653,96.7344C 81.6506,96.694 81.736,96.6543 81.8214,96.6133C 81.7986,96.9049 81.788,97.1999 81.784,97.4987 Z M 95.1933,91.5534C 96.2373,93.3073 95.3746,95.7559 94.1587,97.6322C 93.9599,97.6419 93.7679,97.64 93.5906,97.6113C 91.952,97.347 90.648,96.5273 89.924,95.0586C 89.3106,93.8164 90.5746,92.4727 91.6426,91.442C 92.26,90.8451 93.5533,90.7357 94.356,90.763C 94.4786,90.7669 94.5813,90.7988 94.6866,90.8281C 94.8667,91.056 95.04,91.2949 95.1933,91.5534 Z M 107.077,112.058L 107.033,112.014C 105.231,113.927 103.055,115.277 100.692,116.298C 108.805,105.493 113.975,82.7389 101.291,77.5677C 102.731,74.5651 103.668,71.4531 103.935,68.3594C 103.985,67.7669 103.199,67.683 102.915,68.0833C 98.2026,74.7526 93.672,81.1237 87.416,86.4863C 81.1133,91.8906 70.688,99.4401 62.0453,98.5273C 61.844,98.5065 61.8226,98.8092 62,98.8646C 64.2466,99.5755 66.588,99.8815 68.9653,99.849C 66.64,103.28 65.8279,108.434 65.8199,112.432C 65.812,116.958 67.9253,120.65 71.7533,123.058C 69.8387,123.397 67.9293,123.686 66.0466,123.882C 65.8453,123.903 65.844,124.175 66.0466,124.194C 74.2986,124.969 81.436,125.873 89.6786,123.881C 96.8093,122.158 102.355,117.439 107.077,112.058 Z "/>
	<path fill="#412E33" fill-opacity="1" stroke-width="0.2" stroke-linejoin="miter" d="M 156.904,112.208C 155.036,115.613 152.272,117.78 148.919,119.036C 148.812,118.999 148.72,118.956 148.611,118.918C 146.483,118.177 144.185,117.841 141.78,117.658C 141.472,117.636 141.165,117.614 140.856,117.596C 140.512,117.575 140.167,117.556 139.817,117.543C 139.769,117.542 139.721,117.538 139.673,117.536C 138.916,116.968 138.179,116.362 137.509,115.621C 134.655,112.465 132.856,108.717 131.675,104.698C 133.024,105.254 134.517,105.503 135.979,105.501C 140.301,105.494 145.289,102.621 145.905,98.3649C 149.572,100.517 153.784,102.164 157.945,102.645C 159.187,105.634 158.419,109.45 156.904,112.208 Z M 140.343,94.3799C 140.315,95.292 140.295,96.2126 140.068,97.0511C 138.505,97.4417 136.933,97.8467 135.855,96.8545C 134.919,95.9919 135.032,93.8916 135.193,92.7477C 135.316,91.889 135.564,90.9639 135.904,90.1657C 135.964,90.0277 136.017,89.9131 136.071,89.8135C 137.275,91.4072 138.684,92.9313 140.343,94.3799 Z M 134.077,87.2074C 134.105,87.1123 134.136,87.0192 134.165,86.9248C 134.2,86.986 134.235,87.0485 134.269,87.1097C 134.205,87.1396 134.141,87.1735 134.077,87.2074 Z M 167.273,100.245C 160.493,96.93 153.033,96.3539 146.409,92.4157C 138.257,87.5687 131.776,78.2289 130.819,68.7777C 130.792,68.5211 130.424,68.5121 130.412,68.7777C 130.225,73.0836 130.571,77.085 131.613,80.7933C 126.009,85.3532 124.992,96.2816 126.175,102.557C 127.111,107.528 129.667,113.797 133.904,117.532C 132.388,117.537 130.935,117.509 129.616,117.362C 129.507,117.349 129.495,117.515 129.591,117.546C 136.132,119.639 143.217,123.56 150.167,124.096C 153.189,125.054 156.276,125.724 159.185,126.967C 159.393,127.054 159.596,126.828 159.432,126.647C 157.433,124.448 155.736,122.775 153.711,121.418C 157.069,120.004 160.016,116.932 161.52,113.935C 163.015,110.959 163.465,107.756 162.593,104.536C 162.401,103.83 162.123,103.252 161.801,102.733C 163.699,102.584 165.545,102.147 167.273,101.325C 167.684,101.129 167.679,100.443 167.273,100.245 Z "/>
	<path fill="#412E33" fill-opacity="1" stroke-width="0.2" stroke-linejoin="miter" d="M 113.08,149.713C 108.264,148.377 102.288,149.669 99.94,154.191C 99.7614,154.533 99.9867,154.888 100.359,154.919C 101.651,155.028 102.592,155.371 103.916,155.133C 105.629,154.827 107.283,154.295 109,154C 113.367,153.249 116.647,154.093 119.16,157.888C 119.26,158.04 119.551,158.047 119.589,157.832C 120.325,153.496 117.033,150.808 113.08,149.713 Z "/>
	<path fill="#412E33" fill-opacity="1" stroke-width="0.2" stroke-linejoin="miter" d="M 68.8546,64.9727C 79.3413,62.0059 89.5813,59.2747 99.78,55.2409C 100.979,54.7663 100.8,53.1074 99.476,53C 87.2493,52.0091 78.568,58.7324 68.7226,64.6588C 68.5573,64.7591 68.6653,65.0267 68.8546,64.9727 Z "/>
	<path fill="#412E33" fill-opacity="1" stroke-width="0.2" stroke-linejoin="miter" d="M 160.393,59.4443C 159.772,59.5433 159.429,60.3102 159.585,60.8662C 160.384,63.7236 163.511,65.167 165.22,67.484C 167.048,69.9613 168.408,72.6318 169.965,75.2646C 170.011,75.3389 170.14,75.2894 170.109,75.2047C 168.364,70.5531 168.189,58.2021 160.393,59.4443 Z "/>
</svg>
