<?xml version="1.0" encoding="utf-8"?>
<!DOCTYPE svg PUBLIC "-//W3C//DTD SVG 1.1//EN" "http://www.w3.org/Graphics/SVG/1.1/DTD/svg11.dtd">
<svg xmlns="http://www.w3.org/2000/svg" xmlns:xlink="http://www.w3.org/1999/xlink" version="1.1" baseProfile="full" width="240" height="240" viewBox="0 0 240.00 240.00" enable-background="new 0 0 240.00 240.00" xml:space="preserve">
	<ellipse fill="#FFFF00" fill-opacity="1" stroke-width="0.2" stroke-linejoin="miter" stroke="#412E33" stroke-opacity="0" cx="120" cy="120" rx="120" ry="120"/>
	<g>
		<path fill="#412E33" fill-opacity="1" stroke-width="0.2" stroke-linejoin="miter" d="M 62.2205,118.382C 57.1911,110.089 55.1271,101.643 57.4524,92.0386C 61.1511,76.7759 76.5378,83.3412 84.4431,91.4785C 89.4604,96.6439 91.7098,104.393 94.4738,110.849C 94.6165,111.181 94.7471,111.511 94.8805,111.84C 88.6685,108.073 80.6458,109.785 75.4271,115.141C 72.1511,118.504 70.1618,124.419 71.2471,129.197C 67.4657,126.392 64.6431,122.38 62.2205,118.382 Z M 84.0058,124.893C 83.9285,124.867 83.8538,124.84 83.7765,124.82C 83.7804,124.772 83.7857,124.724 83.7898,124.676C 83.8765,124.744 83.9618,124.809 84.0058,124.893 Z M 91.9124,118.255C 92.7577,120.709 89.0324,121.744 87.3617,121.273C 85.067,120.625 85.5058,117.872 86.8738,116.595C 87.0058,116.472 87.1858,116.331 87.3897,116.185C 89.2418,116.137 91.2284,116.261 91.9124,118.255 Z M 103.559,125.64C 102.379,126.456 101.16,127.179 99.9244,127.865C 105.151,117.779 95.8698,100.737 90.7604,92.3932C 84.7898,82.6439 66.0831,71.1185 57.0471,83.4652C 50.4431,92.4867 51.0951,106.137 56.0351,115.716C 59.5004,122.432 63.5177,128.597 69.6497,133.137C 71.8964,134.801 74.2684,135.828 76.7098,136.409C 70.4084,138.408 64.2538,140.717 58.8191,144.631C 58.7351,144.689 58.7831,144.833 58.8911,144.801C 64.1484,143.272 69.0831,140.964 74.4404,139.704C 79.3404,138.553 84.4071,138.401 89.3404,137.41C 95.1511,136.243 103.235,132.849 104.452,126.328C 104.542,125.853 104.039,125.307 103.559,125.64 Z "/>
		<path fill="#412E33" fill-opacity="1" stroke-width="0.2" stroke-linejoin="miter" d="M 138.215,134.872C 138.286,134.952 138.358,135.031 138.434,135.105C 138.362,135.087 138.292,135.065 138.223,135.044C 138.22,134.987 138.218,134.929 138.215,134.872 Z M 173.643,96.3439C 182.088,99.944 181.424,110.367 178.931,117.517C 176.764,123.729 172.151,128.735 166.564,132.155C 167.119,131.069 167.486,129.849 167.552,128.452C 167.858,122.04 162.416,116.479 156.75,114.341C 150.526,111.993 144.791,113.807 140.703,118.393C 145.572,103.281 157.244,89.3545 173.643,96.3439 Z M 160.211,124.421 Z M 159.715,122.164C 159.515,122.852 159.918,123.672 159.996,123.891C 160.1,124.181 160.166,124.363 160.21,124.479C 160.212,124.578 160.204,124.535 160.13,124.673C 160.114,124.707 160.026,124.829 159.971,124.908C 159.824,125.075 159.662,125.227 159.491,125.369C 158.734,126.004 156.835,126.4 156.05,126.192L 155.95,126.157C 155.81,126.087 155.672,126.009 155.542,125.923C 155.786,126.083 155.25,125.539 155.25,125.539C 154.952,125.053 154.836,123.915 154.86,122.997C 154.886,122.057 155.238,121.388 155.754,120.892C 156.434,120.981 157.108,120.947 157.844,120.749C 157.903,120.733 157.968,120.717 158.03,120.701C 158.627,121.133 159.2,121.617 159.723,122.146 Z M 166.123,137.071C 183.551,129.381 195.988,102.612 176.339,91.7319C 164.788,85.3359 151.367,90.6786 143.902,100.512C 137.98,108.314 129.479,123.695 134.772,133.64C 133.434,132.91 132.194,132.004 131.119,130.817C 131.058,130.751 130.927,130.82 130.962,130.908C 133.566,137.468 140.99,139.228 147.659,139.98C 151.962,140.465 156.196,140.644 160.527,140.644C 166.211,140.644 174.296,139.543 177.904,145.095C 178.119,145.423 178.568,145.14 178.418,144.796C 176.438,140.292 171.175,138.129 166.123,137.071 Z "/>
		<path fill="#412E33" fill-opacity="1" stroke-width="0.2" stroke-linejoin="miter" d="M 117.108,180.799C 113.88,181.199 113.67,174.852 114.051,172.937C 114.344,171.463 115.007,170.019 116.331,169.314C 117.214,169.219 118.083,169.204 118.866,169.559C 120.208,170.168 120.558,171.651 120.652,172.996C 120.811,175.236 120.048,180.435 117.108,180.799 Z M 118.638,165.425C 116.623,165.311 115.007,165.869 113.294,166.852C 112.792,167.14 112.328,167.8 112.29,168.383C 112.284,168.476 112.259,168.563 112.247,168.655C 111.836,169.063 111.455,169.511 111.132,170.015C 107.994,174.903 110.015,185.465 117.108,185.245C 123.731,185.041 125.622,175.758 124.498,170.663C 123.874,167.839 121.574,165.592 118.638,165.425 Z "/>
		<path fill="#412E33" fill-opacity="1" stroke-width="0.2" stroke-linejoin="miter" d="M 76.1178,62.1413C 76.6817,61.252 75.9098,60.376 75.0378,60.2599C 70.5311,59.6572 65.1111,62.3719 61.2084,64.5199C 56.2218,67.2653 53.1191,72.6226 49.6631,76.9146C 49.3217,77.3372 49.8377,77.8626 50.2591,77.5106C 54.7177,73.8039 59.0964,70.1826 64.5631,68.0986C 68.6151,66.556 73.6511,66.0265 76.1178,62.1413 Z "/>
		<path fill="#412E33" fill-opacity="1" stroke-width="0.2" stroke-linejoin="miter" d="M 180.455,74.1133C 180.692,74.1706 180.782,73.8293 180.555,73.7506C 177.691,72.7533 176.188,69.0919 174.707,66.7065C 173.246,64.3545 171.948,61.9279 170.794,59.4079C 170.102,57.8932 166.832,49.6479 164.248,54.0573C 162.191,57.5706 166.304,63.7373 168.36,66.3799C 171.85,70.8652 175.047,72.7772 180.455,74.1133 Z "/>
		<path fill="#412E33" fill-opacity="1" stroke-width="0.2" stroke-linejoin="miter" d="M 122.314,190.28C 121.33,189.981 120.37,190.344 119.418,190.621C 118.228,190.969 117.28,191.396 116.191,191.957C 115.596,192.263 115.891,193.179 116.522,193.18C 118.574,193.183 121.783,193.352 122.75,191.049C 122.884,190.728 122.607,190.369 122.314,190.28 Z "/>
	</g>
</svg>
